<?xml version="1.0" encoding="UTF-8"?>
<svg id="coralBanner1" xmlns="http://www.w3.org/2000/svg" viewBox="0 0 943.05 775.11">
  <defs>
    <style>
      .cls-1 {
        fill: #ffebde;
        stroke: #570060;
        stroke-miterlimit: 10;
        stroke-width: 2.54px;
      }

      .cls-2 {
        fill: #efd5d3;
        stroke-width: 0px;
      }
    </style>
  </defs>
  <path class="cls-1" d="M921.43,696.13c-10.85-12.42-23.64-22.8-38-30.97.51-3.26.92-6.53,1.27-9.81l39.78,9.45c4.49,1.07,8.98-1.65,10.04-6.07,1.05-4.42-1.74-8.87-6.23-9.94l-41.91-9.96c-.23-.05-.45-.06-.68-.09.23-13.77-1.02-27.57-3.78-41.1,2.79,2.18,5.56,4.39,8.28,6.68,3.51,2.97,8.79,2.59,11.77-.87,2.99-3.45,2.55-8.65-.96-11.62-15.9-13.42-33.06-25.03-51.26-34.85.46-1.95.23-4.07-.86-5.95-5.61-9.73-10.86-19.31-13.38-29.43-2.31-9.25-2.24-18.95.04-28.12,18.39,6.96,37.23,12.74,56.37,17.29,10.87,2.58,21.84,4.77,32.87,6.55,4.71.76,9.12-2.38,9.86-7.02.73-4.63-2.43-8.95-7.19-9.77-29.14-4.71-57.82-12.38-85.43-22.79,0,0,0-.02.02-.03,1.99-3.31,1.32-7.44-1.35-10.05,36.44-20.11,69.56-49.25,98.55-86.85,2.78-3.61,2.06-8.78-1.62-11.55-3.68-2.78-8.92-2.09-11.7,1.52-24.74,32.08-52.52,57.65-82.82,76.3-2.08-17.78-1.07-36.11,3-53.45,1.07-4.56-1.81-9.14-6.44-10.24h-.02c-3.89-.92-7.75.93-9.53,4.24-17.61-4.86-33.41,2.54-48.71,9.76-11.13,5.25-21.65,10.21-32.09,10.15-5.67-.04-11.59-1.6-17.84-3.29l8.04-4.88c1-.6,2-1.22,3-1.82.85.02,1.72-.04,2.58-.28,2.53-.7,4.44-2.47,5.44-4.66,8.6-5.35,17.14-11,25.21-17.38,34.35,2.81,63.68-1.81,87.36-13.79,17.69-8.95,32.26-21.85,46.35-34.33,3.53-3.13,3.8-8.5.61-12.01-3.19-3.5-8.65-3.81-12.19-.68-13.28,11.76-27.02,23.92-42.74,31.87-17.05,8.63-37.78,12.86-61.83,12.7,10.48-11.49,18.69-24.38,25.5-38.06,22.12,4.54,46.33-2.46,61.84-18.74,2.97-3.11,3.04-7.85.39-11.11,8.16-1,16.22-2.68,23.98-5.15,4.53-1.44,6.98-6.24,5.48-10.71-1.49-4.47-6.38-6.93-10.9-5.48-19.72,6.29-41.51,7-61.8,2.26,2.24-7.06,4.38-14.15,6.5-21.19,11.72-38.93,22.79-75.7,48.49-103.43,3.1-3.35,2.85-8.56-.57-11.64-3.42-3.08-8.7-2.87-11.8.48-28.27,30.5-40.41,70.82-52.14,109.8-5.84,19.39-11.54,38.25-18.95,55.7-2.59.64-4.83,2.44-5.88,5.07-.93,2.34-.71,4.83.36,6.93-.38.76-.75,1.53-1.14,2.29-.09-.46-.2-.92-.37-1.37l-19.65-51.53c-1.68-4.4-6.66-6.66-11.12-5.04-4.46,1.63-6.71,6.52-5.03,10.93l19.65,51.53c1.06,2.77,3.41,4.68,6.12,5.33,1.61.38,3.34.32,5-.29.04-.02.08-.04.12-.06-3.81,6.37-8.05,12.44-12.82,18.16-.3-1.65-1.1-3.24-2.39-4.52-9.53-9.41-15.95-21.81-18.07-34.92-.75-4.65-5.17-7.84-9.88-7.13-4.71.7-7.91,5.05-7.16,9.69,2.69,16.65,10.83,32.4,22.94,44.35,1.18,1.16,2.61,1.92,4.11,2.28.42.1.84.1,1.27.14-1.47,1.41-2.96,2.8-4.49,4.14-2.56-.27-5.14-.58-7.76-.94-4.73-.65-9.06,2.6-9.68,7.25-.29,2.19.28,4.29,1.47,5.98-2.52,1.74-5.08,3.42-7.66,5.09-4.87-13.96-11.04-27.52-18.38-40.45,6.56-17.51,10.55-35.82,11.8-54.49.31-4.69-3.32-8.77-8.04-9.11-4.76-.34-8.87,3.18-9.18,7.86-.83,12.5-3.03,24.81-6.48,36.8-5.41-7.8-11.26-15.3-17.54-22.41-3.14-3.56-8.59-3.95-12.18-.88-3.58,3.07-3.95,8.44-.81,12,20.49,23.21,36.16,50.77,45.75,80.03-.5.3-.99.61-1.49.91l-24.46,14.85c-.87.04-1.74.07-2.63.15-1.09.11-2.09.43-3.01.89l-8.33-44.42c-.84-4.48-5.19-7.47-9.73-6.67-4.54.79-7.53,5.07-6.69,9.55l9.92,52.92-16.58,10.07c-.67-7.3-2.03-14.55-4.09-21.54-1.29-4.38-5.93-6.92-10.36-5.68-4.43,1.24-6.97,5.8-5.68,10.17,2.56,8.69,3.85,17.81,3.89,26.9l-16.85,10.23c-1.18-9.58-4.61-18.84-9.91-26.96.76-.74,1.4-1.62,1.83-2.66,7.92-18.79,19.04-35.88,33.05-50.8,3.12-3.32,2.9-8.54-.49-11.64-3.39-3.1-8.68-2.92-11.8.4-4.14,4.41-8.04,9.02-11.71,13.77l-16.89-15.32c-3.41-3.09-8.69-2.88-11.8.45-3.11,3.34-2.87,8.55.54,11.64l18.56,16.83c-4.89,7.64-9.21,15.64-12.96,23.95-1.17-1.01-2.37-2-3.63-2.92-1.89-1.4-3.81-2.65-5.66-3.87-3.49-2.29-6.78-4.45-9.07-7.04-6.37-7.22-6.34-18.81-5.72-31.05.23-4.54-3.3-8.45-7.93-8.69-4.61-.26-8.53,3.22-8.76,7.76-.76,15.12-.63,30.88,9.84,42.75,3.78,4.29,8.39,7.31,12.46,9.97,1.65,1.08,3.31,2.16,4.88,3.33,12.17,9,19.59,24.45,18.9,39.38,0,.2.02.38.03.58l-24.42,14.82c-1.94.56-3.88,1.21-5.8,1.96,2.06-11.24,1.37-23.01-2.25-33.84-1.45-4.33-6.17-6.7-10.56-5.31-4.38,1.4-6.75,6.04-5.31,10.37,4.55,13.59,3.06,29.12-3.99,41.54-.5.89-.8,1.84-.94,2.79l-85.99,52.2c-2.34,1.42-4.68,2.84-7.03,4.26-2.64-1.21-5.26-2.5-7.83-3.97-4.01-2.29-9.11-.96-11.4,2.98-2.17,3.73-1.01,8.43,2.54,10.86-7.43,4.26-14.97,8.36-22.66,12.09,1.54-6,2.46-12.16,2.65-18.33.14-4.54-3.47-8.38-8.09-8.55-4.61-.17-8.47,3.37-8.61,7.92-.31,9.66-2.76,19.26-6.99,27.99-3.61,1.33-7.26,2.55-10.95,3.64-13.23-4.87-26-10.88-38.05-18.04,9.83-14.35,20.38-28.07,31.59-41.15,17.39,2.99,38.89,5.39,57.7-2.94,13.66-6.05,23.61-16.51,33.24-26.62,2.41-2.53,4.81-5.05,7.26-7.49,13.51-13.43,26.05-19.54,37.28-18.17,4.58.56,8.73-2.65,9.27-7.16.54-4.51-2.75-8.6-7.33-9.19-16.6-2.03-33.8,5.67-51.11,22.87-2.56,2.54-5.07,5.17-7.58,7.81-8.91,9.35-17.32,18.19-27.96,22.91-11.08,4.91-23.71,5-37.62,3.27,17.72-19.02,36.95-36.52,57.56-52.36,6.37-4.89,13.03-9.75,19.47-14.45,20.16-14.69,41.01-29.89,57.87-49.7,9.92-11.66,18.09-24.49,25.41-37.72,23.82,3.24,48.38-4.72,66.18-20.24,5.14-.55,10.32-.61,15.46-.19.02,0,.04.02.07.02.78.19,1.58.23,2.38.19,6.38.71,12.67,2.14,18.72,4.31,4.5,1.6,9.42-.67,11.02-5.09s-.75-9.3-5.24-10.91c-2.68-.96-5.4-1.76-8.15-2.48,5.55-7.91,9.33-17.03,11.09-26.53,7.87-5.62,17.03-9.3,26.7-10.68,3.41-.48,6.18-2.93,7.06-6.2,1.69-6.34,3-12.36,4.04-18.17,12.35-3.08,24.76-6.8,36.34-13.17l31.38,10.49c.25.09.51.16.76.22,4.29,1.02,8.73-1.34,10.14-5.54,1.5-4.45-.95-9.28-5.47-10.79l-19.98-6.68c8.99-8.75,14.93-19.23,16.88-30.28.82-4.63-2.38-9-7.02-9.89-4.7-.84-9.16,2.23-9.98,6.86-1.78,10.06-8.64,19.67-19.09,26.99-4.22-.91-8.53,1.42-9.92,5.54-.03.08-.03.15-.05.23-6.85,3.29-14.23,5.73-21.76,7.8.76-12.31-.17-23.55-2.86-34.15-1.16-4.56-5.85-7.37-10.46-6.26-4.62,1.11-7.43,5.71-6.28,10.28,2.66,10.51,3.28,21.94,1.88,34.9-3.32,1.8-5.14,5.61-4.18,9.42.38,1.5,1.16,2.78,2.17,3.83-.56,2.85-1.19,5.77-1.91,8.77-6.17,1.35-12.13,3.46-17.75,6.23-.46-3.65-1.21-7.28-2.32-10.81-1.26-4-2.89-8.03-4.46-11.93-5.2-12.91-8.28-21.83-3.81-28.03,2.75-3.82,1.82-9.13-2.07-11.87-3.89-2.74-9.27-1.86-12.02,1.96-10.19,14.16-3.5,30.77,1.88,44.13,1.52,3.77,2.95,7.32,4.02,10.7,1.91,6.05,2.48,12.43,1.87,18.7-.38,1.1-.54,2.26-.45,3.42-1.62,9.75-6.11,19.03-12.97,26.17,1.08-1.79,2.1-3.62,3.03-5.51,2.07-4.21.27-9.31-4.02-11.39-4.28-2.05-9.45-.34-11.52,3.88-10.76,21.89-36.02,36.08-60.72,35.41,3.23-6.43,6.34-12.89,9.43-19.29,4.31-8.94,8.64-17.95,12.93-27.01,1.27-.3,2.49-.88,3.55-1.76,7.02-5.87,16.34-9.05,25.57-8.72,4.76.17,8.74-3.5,8.87-8.2.14-4.7-3.63-8.64-8.37-8.81-6.09-.21-12.19.67-18.01,2.43,9.33-20.66,18.1-41.7,25.55-63.26,1.27-.4,2.46-1.06,3.46-2.06,2.41-2.4,6.89-2.61,13.99-2.65,4.56-.03,9.28-.06,14.07-1.12,12.52-2.78,22.81-12.95,25.6-25.3,1.03-4.55-1.86-9.08-6.45-10.18l-.09-.02c-4.65-1.05-9.26,1.81-10.3,6.38-1.36,6.01-6.56,11.16-12.66,12.52-2.97.66-6.58.68-10.4.71-3.25.02-6.82.06-10.41.55,2.59-8.72,4.96-17.52,7-26.43,2.21-9.64,4.15-19.64,6.03-29.31.17-.86.34-1.72.5-2.59.35-.36.67-.75.96-1.17,1.76-1.08,3.54-2.12,5.35-3.12.79.37,1.62.67,2.53.79,12.51,1.72,24.64,5.32,36.05,10.72.57.27,1.14.47,1.73.61,3.88.92,7.99-.91,9.76-4.58,2.04-4.23.2-9.32-4.11-11.36-6.35-3.01-12.9-5.52-19.6-7.54,4.29-1.36,8.63-2.55,13.02-3.5,4.65-1,7.57-5.54,6.52-10.13-1.05-4.59-5.66-7.49-10.32-6.5-12.85,2.77-25.41,7.22-37.24,13.04,6.56-29.73,15.64-58.27,35.67-78.63,3.2-3.25,3.1-8.47-.22-11.65-3.32-3.18-8.61-3.12-11.81.13-13.63,13.85-22.64,30.43-29.21,48.3-1.1-.74-2.37-1.27-3.78-1.42-19.03-2.08-37.31-9.07-52.85-20.21-3.74-2.68-8.97-1.88-11.66,1.79-2.7,3.67-1.85,8.82,1.9,11.51,13.58,9.73,28.97,16.71,45.18,20.56,5.16,1.23,10.41,2.14,15.71,2.72.2.02.4,0,.6,0-2.83,9.71-5.15,19.67-7.24,29.68-11.52-8.11-21.59-18.23-29.53-29.79-2.6-3.78-7.79-4.78-11.61-2.25-3.81,2.54-4.8,7.65-2.2,11.43,9.38,13.65,21.4,25.53,35.13,34.95-1.35,2.75-1.18,6.13.81,8.78.67.89,1.48,1.6,2.37,2.15-1.18,6.02-2.41,12.02-3.7,17.97l-9.36-17.54c-2.23-4.18-7.45-5.8-11.66-3.63-4.22,2.17-5.83,7.3-3.6,11.47l18.03,33.78c.13.24.3.43.45.66-13.74,48.55-35.98,94.77-57.59,139.64-11.72,24.32-23.83,49.46-41.17,69.85-15.6,18.33-34.75,32.29-55.03,47.07-3.22,2.35-6.5,4.74-9.78,7.16,3.77-9.93,6.09-20.42,6.86-31.02,9.17-5.02,18.9-9,29.05-11.71,4.44-1.19,7.05-5.71,5.81-10.1-1.24-4.39-5.84-6.98-10.29-5.8-3.3.88-6.55,1.89-9.77,2.99,8.61-10.94,15.16-23.51,19.2-36.8,9.92-8.7,15.27-20.52,20.45-31.99,3.54-7.82,6.91-15.22,11.53-21.37.91-.09,1.81-.33,2.68-.74,2.96-1.38,4.66-4.27,4.7-7.3,2.42-2.25,5.01-4.44,7.68-6.7,5.58-4.72,11.34-9.59,16.23-15.64,5.62-6.96,9.51-14.78,13.27-22.33,4.49-9.03,8.74-17.56,15.42-23.57,1.55-1.4,3.26-2.77,4.98-4.16,7.91-6.38,18.75-15.11,16.53-28.52-.75-4.5-5.04-7.56-9.59-6.87-4.55.7-7.64,4.92-6.9,9.41.62,3.76-4.03,7.84-10.67,13.19-1.89,1.53-3.85,3.1-5.67,4.74-8.99,8.1-14.13,18.43-19.11,28.42-3.53,7.09-6.86,13.78-11.37,19.36-3.9,4.83-8.83,9-14.05,13.42-.95.81-1.91,1.63-2.87,2.45-3.57-10.65-5.54-21.83-5.83-33.03,4.58-6.3,13.08-10.38,22.1-14.66,13.35-6.33,28.48-13.5,31.95-30.27.94-4.52-1.95-8.95-6.48-10.03-.08-.02-.16-.04-.24-.06-4.67-.97-9.23,1.97-10.18,6.56-1.66,7.99-9.64,12.3-22.61,18.44-4.14,1.96-8.48,4.03-12.67,6.45.74-3.93,1.66-7.82,2.83-11.65,1.33-4.35-1.17-8.96-5.59-10.3-4.42-1.32-9.08,1.09-10.4,5.44-8.53,27.9-6.95,58.75,4.14,85.88-.22.27-.47.51-.68.79-3.51,4.42-6.33,9.21-8.84,14.11-3.09-6.44-7.23-12.39-11.14-17.99-5.85-8.38-11.38-16.3-13.19-24.7-1.38-6.39-.54-13.23,1.08-19.95,10.24-13.11,18.77-27.71,25.18-43.11.75-.12,1.5-.32,2.22-.65,12.64-5.84,23.3-15.64,30.4-27.49,14.71-5.94,27.14-17.57,33.57-31.87.7-1.56,1.34-3.16,1.97-4.76,1.27-3.19,2.46-6.21,4.13-8.42,1.65-2.18,4.1-3.1,4.84-2.87,4.35,1.53,9.12-.66,10.66-4.94s-.74-9-5.08-10.55c-9.52-3.38-18.84,1.81-23.86,8.48-1,1.32-1.82,2.7-2.58,4.08-4.61-14.2-10.97-27.79-19.08-40.56-2.46-3.86-7.62-5.06-11.52-2.67-3.9,2.4-5.08,7.47-2.62,11.34,10.38,16.34,17.86,34.87,21.81,53.74-1.96,2.4-4.14,4.64-6.55,6.61-1.09-1.65-2.72-2.96-4.78-3.57-4.53-1.33-9.36,1.21-10.7,5.72-.71,2.39-1.66,4.69-2.71,6.94-.09.02-.17.06-.25.08-4.48,1.05-7.23,5.49-6.13,9.91.02.07.06.13.08.2-2.09,2.65-4.43,5.1-6.99,7.31-.78-2.77-2.92-5.11-5.93-5.97-4.69-1.33-9.36,1.27-10.66,5.78-4.35,15.05-10.98,29.61-19.41,42.97-3.53,0-6.82,2.13-7.96,5.62-1.01,3.11-2.09,6.43-3.07,9.89-.31.39-.61.8-.92,1.19-1.96,2.4-2.34,5.53-1.34,8.25-1,5.33-1.51,10.89-1.04,16.53-2.91-.75-6.11.23-8.04,2.72l-46.83,60.41c-5.5-25.1-9.08-49.13-.13-68.92,6.79-1.5,14.26-.26,20.04,3.62,3.53,2.36,8.33,1.48,10.71-2,2.38-3.47,1.44-8.21-2.1-10.58-5.44-3.65-11.82-5.86-18.37-6.59,3.38-3.92,7.13-7.73,11-11.64,4.53-4.58,9.12-9.24,13.28-14.3,4.78.77,9.66.89,14.42.27,4.57-.6,7.75-4.74,7.11-9.25-.64-4.51-4.86-7.68-9.43-7.08-.62.08-1.25.13-1.87.17.31-.67.66-1.31.95-2,3.06-7.27,4.48-14.84,5.73-22.23,23.01-2.29,43.92-16.61,53.88-37.22,2.05-4.23.21-9.32-4.09-11.36-4.29-2.04-9.45-.27-11.49,3.96-6.5,13.44-19.82,23.53-34.59,26.81,1.05-3.43,2.38-6.67,4.22-9.61,2.24-3.56,1.12-8.26-2.51-10.49-3.64-2.24-8.38-1.16-10.62,2.4-1.44,2.29-2.62,4.64-3.64,7.03-.78-3.94-1.68-7.86-2.71-11.76,12.96-6.88,23.95-17.25,31.88-29.57l42.26,15.83c.34.13.68.23,1.03.31,4.03.96,8.23-1.16,9.72-5.08,1.61-4.25-.59-9.01-4.91-10.63l-40.51-15.17c2.04-5.06,3.64-10.28,4.67-15.61,1.55-.08,3.1-.54,4.47-1.49,8.01-5.57,14.81-12.95,19.67-21.34,2.35-4.07.9-9.27-3.24-11.62-4.16-2.35-9.41-.95-11.76,3.11-2.22,3.84-5.04,7.34-8.22,10.48-1.2-3.51-4.61-6-8.54-5.84-4.76.19-8.44,4.15-8.21,8.84.48,10.12-1.63,20.22-5.74,29.48-2.08.83-3.82,2.46-4.66,4.69-.58,1.53-.65,3.12-.32,4.61-5.76,9.05-13.55,16.82-22.75,22.33-1.95-5.38-4.12-10.68-6.54-15.87l14.19-44.54c1.42-4.47-1.11-9.26-5.65-10.7-4.54-1.39-9.39,1.03-10.81,5.5l-10.84,34.03c-1.11.05-2.21.32-3.25.87-3.74,1.99-5.12,6.6-3.08,10.3.8,1.46,1.52,2.96,2.28,4.44.27,1.81,1.14,3.48,2.45,4.78,3.04,6.36,5.68,12.91,7.95,19.59-1.13,2.14-1.36,4.73-.35,7.15.77,1.83,2.13,3.23,3.75,4.15,3.29,12.25,5.33,24.82,5.94,37.44.13,2.65,1.62,4.92,3.77,6.2-.78,3.45-1.73,6.76-3.05,9.88-.74,1.76-1.63,3.45-2.59,5.11-.17-.08-.35-.14-.52-.22-4.16-1.95-9.15-.21-11.11,3.89-1.55,3.26-.71,7.02,1.79,9.41-2.8,3.09-5.8,6.13-8.87,9.24-7.6,7.69-15.43,15.65-21.11,25.41-3.21,1.55-4.87,5.03-4.13,8.39-1.11,2.7-2.09,5.42-2.86,8.19,1.61-8.94,2.95-17.69,4.21-26,.7-4.64-2.51-8.96-7.26-9.72-4.71-.72-9.1,2.45-9.81,7.09-.3,1.99-.61,4.01-.92,6.05l-1.06-15.78c-.46-6.88-.98-14.69-3.66-22.22-2.64-7.44-7.12-13.85-11.07-19.51l-6.07-8.67c.46-1.18.69-2.47.56-3.82l-5.39-56.15c-.45-4.68-4.65-8.14-9.4-7.73-4.74.41-8.22,4.54-7.78,9.22l3.01,31.34-1.24-1.77c-2.72-3.89-8.09-4.87-12.01-2.22-3.91,2.65-4.89,7.95-2.17,11.82l26.3,37.58c3.65,5.22,7.1,10.15,8.97,15.43,1.9,5.33,2.32,11.62,2.72,17.7l4.55,68c.1,1.5.6,2.87,1.37,4.06-3.31,10.23-7.45,20.15-12.73,29.38-1.11-.9-2.44-1.58-3.95-1.86-4.61-.81-8.98,2.15-9.9,6.64l-14.01-93.66c-.69-4.65-5.08-7.89-9.8-7.24-4.71.65-7.97,4.95-7.28,9.61l21.68,144.97-6.69,38.32c-.05.31-.11.63-.16.94-11.6-8.02-22.73-16.71-31.59-27.25-2.68-3.19-5.05-6.48-7.12-9.83,7.02-33.77,14.63-67.89,22.65-101.48,1.09-4.57-1.79-9.17-6.42-10.27h-.01c-4.64-1.1-9.27,1.7-10.36,6.26-5.14,21.53-10.1,43.28-14.86,65.03.58-4.42-2.37-8.57-6.92-9.48-4.68-.9-9.19,2.1-10.08,6.71-2.19,11.39-.98,23.51,3.26,35.4-7.44-2.62-14.6-5.95-21.38-9.94.3-.79.51-1.62.56-2.51,1.26-26.08,11.16-50.38,21.64-76.11,8.39-20.59,17.06-41.88,21.02-64.38l.41-2.43c.82-4.86,1.59-9.45,3.56-12.94,1.56-2.77,4.49-4.81,6.4-4.44,4.68.88,9.18-2.14,10.05-6.76.86-4.61-2.18-9.03-6.93-9.96-5.93-1.12-11.4.48-15.87,3.43-3.5-36.14-18.56-70.97-43.16-98.44-3.16-3.54-8.62-3.89-12.18-.79-3.56,3.1-3.88,8.47-.72,12.01,13.25,14.8,23.4,31.97,30.13,50.35-5.02-2.02-10.19-3.57-15.09-5.03-12.44-3.71-23.19-6.91-27.07-15.52-1.94-4.3-7.05-6.26-11.4-4.37-4.35,1.89-6.3,6.91-4.35,11.21,7.13,15.78,23.5,20.66,37.94,24.96,10.67,3.18,20.76,6.19,26.56,12.79.05.06.11.1.16.15,2.43,12.66,3.28,25.62,2.43,38.56-.14,2.16.56,4.19,1.81,5.78-1.36,7.24-3.23,14.44-5.49,21.59-5.9-3.95-12.16-7.12-18.3-10.21-3.28-1.65-6.37-3.21-9.41-4.88-13.05-7.18-20.71-15.15-22.78-23.69-1.1-4.58-5.76-7.43-10.39-6.37-4.64,1.06-7.5,5.62-6.39,10.2,3.24,13.41,13.75,25.09,31.23,34.71,3.32,1.82,6.7,3.53,9.97,5.17,7.35,3.7,14.33,7.24,20.17,11.84-2.68,7.07-5.52,14.09-8.34,21.01-1.72,4.23-3.46,8.49-5.16,12.78-14.08-11.01-26.06-24.76-34.9-40.16-2.35-4.1-7.62-5.57-11.76-3.27-4.14,2.29-5.59,7.48-3.23,11.58,10.85,18.88,25.91,35.53,43.64,48.41-5.08,14.38-9.19,29.16-10.81,44.52-2.05-1.69-4.04-3.45-5.97-5.28-3.45-3.27-8.91-3.17-12.2.2-3.29,3.38-3.16,8.76.29,12.03,17.12,16.21,38.29,27.89,61.23,33.78.05.02.11.03.16.04,1.34.32,2.67.28,3.93,0,2.01,3,4.2,5.95,6.61,8.82,12.05,14.35,27,25.13,42.03,35.13-1.34,12-1.48,24.79,2.08,37.11-5.34,10.65-10.68,22.35-15.22,34.7-1.02-1.93-2.16-3.8-3.41-5.6.28-.9.45-1.86.4-2.86l-2.38-52.82c-.21-4.69-4.25-8.35-9-8.18-4.76.17-8.45,4.12-8.24,8.82l1.97,43.78c-1.26.46-2.43,1.2-3.37,2.26-3.01,3.43-2.61,8.63.88,11.62,8.76,7.5,13.66,19.66,12.49,30.99-.19,1.85.28,3.61,1.19,5.1-.6,3.06-1.12,6.14-1.56,9.24-5.89-7.39-12.22-14.04-19.44-19.37-10.67-23.4-10.44-51.36.91-74.34,2.01-4.08.29-9.02-3.86-11.03-4.14-2.01-9.15-.35-11.16,3.73-1.73,3.5-3.22,7.09-4.52,10.76-5.38-7.42-12.51-13.72-19.53-19.89-6.77-5.95-13.16-11.58-17.75-17.97-7.28-10.13-10.28-22.79-13.45-36.19-1.45-6.13-2.96-12.46-4.91-18.65-4.37-13.82-10.8-23.87-17.97-30.97,4.45-19.32,8.43-38.87,11.79-58.32.8-4.62-2.34-9.02-7.06-9.86-4.7-.82-9.15,2.26-9.95,6.89-1.36,7.88-2.85,15.77-4.41,23.67-18.27-7.82-32.54-24.53-36.69-43.81-.99-4.6-5.57-7.57-10.23-6.63-4.66.94-7.64,5.44-6.65,10.04,5.54,25.76,25.23,47.91,50.11,57.28-.73,3.4-1.44,6.8-2.2,10.19-5.87-2.55-11.67-3.61-16.82-3.48-4.76.12-8.5,4.02-8.35,8.72.15,4.7,4.14,8.42,8.9,8.29,4.4-.11,8.53,1.19,12.33,3.44-.09.36-.16.72-.25,1.07-1.11,4.56,1.76,9.17,6.39,10.29h.04c1.86.45,3.7.24,5.33-.43,4,5.51,7.16,12.04,9.23,18.58,1.77,5.6,3.13,11.36,4.58,17.45,3.42,14.42,6.95,29.32,16.2,42.2,5.73,7.98,13.18,14.53,20.38,20.86,11.3,9.94,21.06,18.52,22.49,30.27.26,2.15,1.32,4,2.84,5.34-.62,10.72.38,21.55,3.03,31.98-7.91-2.22-15.91-2.73-23.78-2.88-1.47-35.36-29.44-68.07-64.65-75.08-4.53-.91-8.92,1.97-9.8,6.43-.87,4.36,1.93,8.61,6.29,9.65.1.02.2.05.3.07,27.14,5.46,49.47,31.35,51.08,58.61-7.67-.38-14.84-1.43-21.01-4.7-3.68-1.96-7.14-4.78-10.8-7.77-1.01-.83-2.02-1.66-3.05-2.47-9.75-7.76-20.43-14.29-31.7-19.5-.16-1.31-.6-2.6-1.4-3.77-7-10.16-5.31-24.88-3.69-39.11l.51-4.49c.78-7.25.84-13.91.23-19.97l12.76-5.51c4.36-1.88,6.32-6.89,4.38-11.2-1.93-4.31-7.04-6.28-11.39-4.4l-9.86,4.26c-3.2-7.44-8.07-13.24-14.56-17.22-4.05-2.5-9.37-1.28-11.87,2.7-2.5,3.98-1.23,9.23,2.83,11.72,11.75,7.21,11.51,26.71,10.33,37.68l-.49,4.39c-.03.31-.07.62-.1.92-12.87-1.51-25.51-5.09-38.79-8.87-6.49-1.85-13.19-3.75-19.91-5.39-.4-.1-.79-.19-1.19-.28-28.86-6.86-51.88-5.93-70.31,2.84-4.28,2.03-6.05,7.12-3.96,11.35,1.18,2.4,3.35,4.01,5.79,4.59,1.87.44,3.89.28,5.75-.6,14.72-7,33.96-7.54,58.79-1.64.36.09.73.17,1.1.26,1.54.37,3.09.81,4.64,1.21-9.76,6.1-18.18,14.33-24.22,23.94-2.5,3.98-1.24,9.23,2.82,11.73.81.5,1.68.85,2.56,1.06,3.52.84,7.31-.57,9.31-3.76,7.29-11.61,19.03-20.66,32.23-24.84.87-.28,1.64-.71,2.35-1.21,10.28,2.81,20.81,5.32,31.64,6.55-.17,6.33.23,12.69,1.82,18.82-13.12-3.85-26.75-6.04-40.48-6.36-4.61-.11-8.41,3.49-8.49,8.04-.08,4.55,3.61,8.32,8.21,8.43,23.89.55,47.39,7.36,67.89,19.41-2.66,1.25-5.11,2.95-7.18,5.07-3.19,3.26-3.07,8.48.26,11.65,1.12,1.06,2.46,1.76,3.86,2.1,2.78.66,5.83-.1,7.95-2.27,2.78-2.85,8.06-3.53,11.54-1.49,1.85,1.09,3.95,1.37,5.91.99,3.11,2.46,6.4,4.86,10.16,6.86,12.65,6.72,26.31,6.83,39.53,6.93,9.3.08,18.08.16,26.01,2.48,4.31,1.27,8.32,3.21,12.1,5.64.3.58.57,1.18.89,1.76,1.18,2.18,3.2,3.62,5.46,4.16.53.13,1.08.19,1.63.21,8.52,7.65,15.94,17.83,23.21,28.64.13,2.66.34,5.31.64,7.96-.41.3-.8.64-1.15,1.02-9.4,10.24-25.28,14.11-38.51,9.48-3.69-1.29-7.63.12-9.69,3.17-5.63-3.48-11.4-6.71-17.31-9.69-3.22-1.62-6.49-3.17-9.76-4.73-10.01-4.75-19.48-9.24-27.37-15.69-3.52-2.88-6.77-6.18-10.22-9.68-1.71-1.73-3.44-3.49-5.24-5.23-.04-.04-.07-.09-.11-.13-.04-.04-.09-.06-.13-.1-1.93-1.86-3.94-3.69-6.07-5.43-18.76-15.32-45-21.19-68.5-15.31-2.71.68-4.89,2.65-5.79,5.26-.91,2.61-.43,5.5,1.28,7.7l3.78,4.88c2.81,3.63,8.05,4.34,11.71,1.6,1.72-1.29,2.79-3.12,3.14-5.07,15.17-1.13,30.79,3.49,42.78,12.86-4.22,4.77-8.11,9.84-11.65,15.15l-48.17-11.36c-.12-.1-.21-.21-.33-.3-17.29-12.68-32.3-29-43.38-47.21-2.38-3.92-7.51-5.21-11.46-2.88-3.95,2.32-5.22,7.37-2.84,11.28,1.79,2.94,3.7,5.82,5.67,8.66-11.71-2.8-24.14-2.53-35.69,1.07-4.53,1.41-7.02,6.19-5.56,10.67.97,2.95,3.4,5.04,6.25,5.72,1.47.35,3.06.32,4.61-.16,13.7-4.27,29.72-2.07,41.8,5.76,2.54,1.64,5.63,1.79,8.21.67.57.58,1.12,1.18,1.69,1.75-11.57.39-19.79,4.63-24.51,12.75-2.29,3.93-.89,8.97,3.11,11.26.72.41,1.47.7,2.24.88,3.51.83,7.28-.65,9.16-3.88,3.93-6.76,18.07-4.57,26.16-2.66l54.38,12.82c-10.88,21.48-16.48,45.66-15.59,69.57.14,3.79,2.86,6.91,6.44,7.76.71.17,1.45.25,2.22.23,4.61-.14,8.21-3.93,8.04-8.48-.85-22.68,4.92-45.63,15.95-65.62,3.35-.42,6.23-2.8,7.04-6.23.38-1.61.24-3.21-.29-4.66,2.69-3.89,5.59-7.63,8.7-11.19,3.31,3.35,6.74,6.78,10.59,9.92,9.48,7.74,20.32,12.89,30.81,17.87,3.15,1.49,6.3,2.99,9.4,4.55,14.39,7.25,27.95,16.15,40.3,26.44,5.22,4.35,9.16,10.25,9.36,14.03.06,1.13-.25,1.68-.77,2.21-1.66,1.68-2.41,3.9-2.31,6.08-3.06,1.76-6.21,3.33-9.51,4.64-4.27,1.7-6.31,6.5-4.56,10.71,1.07,2.57,3.29,4.33,5.83,4.94,1.63.39,3.4.3,5.07-.37,34.07-13.56,54.68-45.73,74.61-76.85,1.42-2.21,2.83-4.38,4.25-6.57,0,0,.01,0,.02.01,10.53,6.28,21.58,11.72,32.98,16.39.88,2.91,3.23,5.05,6.06,5.73,1.25.3,2.58.31,3.91,0,1.04-.25,2.06-.53,3.09-.8,9.78,3.39,19.77,6.19,29.91,8.39,8.06,3.74,14.23,12.61,20.22,21.23l1.84,2.65c9.79,13.97,20.21,22.3,31.08,24.89,3.16.75,6.35,1.02,9.59.79,4.6-.32,8.04-4.26,7.68-8.79-.36-4.54-4.37-7.96-8.97-7.64-8.01.56-16.64-5.69-25.65-18.54l-1.8-2.59c-1.68-2.42-3.41-4.9-5.23-7.36,13.92,1.42,27.94,1.67,41.84.79-.09,2.28.75,4.6,2.56,6.31,13.49,12.73,29.98,22.54,47.66,28.38,3.92,1.3,7.88,2.39,11.85,3.34,13.58,3.23,27.37,4.66,40.81,6.05l52.41,5.43c1.91,6.43,4.32,12.71,7.24,18.75,1.14,2.35,3.26,3.94,5.64,4.51,1.78.42,3.72.28,5.5-.55,4.16-1.93,5.92-6.84,3.94-10.96-1.55-3.21-2.88-6.52-4.1-9.87l9.72,1.01c4.59.48,8.68-2.8,9.13-7.33.45-4.53-2.95-8.59-7.5-9.05l-16.08-1.67c-2.01-10.39-2.57-21.03-1.55-31.5,25.18,11.5,49.38,28.69,70.61,50.73,1.91,1.99,3.79,4.06,5.67,6.12-2.22.59-4.19,2.05-5.29,4.24-8.59,17.16-9.27,38.02-1.83,55.79,1.07,2.56,3.29,4.31,5.82,4.91,1.64.39,3.41.3,5.09-.38,4.26-1.71,6.29-6.51,4.53-10.73-5.63-13.46-5.11-29.24,1.39-42.23.07-.15.11-.3.17-.45,5.55,6.5,10.99,13.13,16.31,19.65.37.45.74.91,1.11,1.36-6.64,14.77-6.03,32.47,1.78,46.82,1.18,2.17,3.2,3.62,5.45,4.15,1.91.45,3.99.25,5.86-.73,4.06-2.13,5.58-7.11,3.39-11.13-3.87-7.11-5.08-15.67-3.74-23.71,18.55,21.99,38.66,43.08,64.55,57.28.71.39,1.44.67,2.19.85,3.67.87,7.62-.72,9.52-4.13,2.29-4.1.77-9.29-3.41-11.58-9.6-5.27-18.32-11.6-26.52-18.67.73-1.44,1.04-3.1.79-4.82-4.7-32.28-.63-65.13,11.71-95.23,8.16,1.27,16.73,1.74,25.24.23-.27,14.95-2.39,29.86-6.48,44.24-1.86,6.55-4.79,9.65-5.89,9.55-.38-.04-.76-.12-1.14-.2-2.14-.42-5.73-1.13-9.56.54-5.13,2.23-7.62,8.43-5.55,13.81,1.21,3.17,3.82,5.35,6.86,6.08,1.62.39,3.37.36,5.08-.16,2.03-.61,3.65-1.92,4.67-3.58.45,0,.88-.04,1.32-.07,5.34,16.03,13.95,31.19,25.09,44,1.2,1.38,2.76,2.27,4.42,2.67,2.51.6,5.26.04,7.37-1.73,3.49-2.95,3.88-8.15.87-11.61-10.36-11.91-18.25-26.13-22.8-41.14-.12-.38-.29-.73-.45-1.08,2.41-3.34,4.39-7.54,5.81-12.51.48-1.69.93-3.39,1.37-5.1,10.79,6.75,20.5,14.98,28.89,24.58,1.2,1.37,2.75,2.26,4.4,2.65,2.52.6,5.27.04,7.38-1.74,3.48-2.95,3.86-8.16.84-11.61ZM833.61,288.56c10.68,2.54,21.75,3.66,32.79,3.51-10.43,9.84-25.87,14.55-40.34,12.83,2.25-5.48,4.35-11.03,6.32-16.64.41.1.82.21,1.23.31ZM627.52,575.49c-1.7.69-3.02,1.88-3.9,3.32-14.51-2.34-28.99-2.9-43.13-1.52-12.27,1.19-24.27,3.76-35.88,6.24-7.18,1.54-14.61,3.12-21.87,4.33-30.99,5.13-63.27,3.67-94.06-3.78,16.19-6.82,31.49-15.37,46.38-24.23,4.86,1.79,9.76,3.25,14.63,4.41,21.13,5.02,41.81,4.59,57.65,2.76,28.86-3.33,56.32-12.42,82.91-21.43,6.61,2.05,13.13,4.34,19.53,6.94,4.26,1.74,9.14-.26,10.88-4.46,1.74-4.2-.32-9.02-4.6-10.76-7.1-2.89-14.3-5.42-21.57-7.66-1.11-.62-2.35-1-3.64-1.07-26.02-7.64-52.84-11.69-79.29-15.1l50.72-30.78c18.27-4.42,38.51.83,59.78,6.39,2.58.67,5.22,1.34,7.85,2.01-10.05,18.69-8.85,42.81,3.78,60.33,1.23,1.7,2.98,2.81,4.89,3.26.06.01.12.01.17.02l-51.22,20.79ZM530.98,525.96c1.01.9,2.23,1.58,3.62,1.91.3.07.61.13.92.17,21.53,2.7,43.47,5.46,64.95,9.94-18.08,5.66-36.51,10.53-55.19,12.68-14.15,1.63-32.56,2.03-51.19-2.3l36.89-22.39ZM687.27,541.93c-9.77-13.55-9.73-33.45-.14-46.96,15.01,2.85,30.5,3.96,46.15,3.38.36.57.77,1.12,1.28,1.62,10.62,10.2,21.82,19.95,33.4,29.16-6.12-.43-12.41-.36-18.71.51-13.16,1.81-25.11,6.66-36.68,11.35l-25.05,10.17c1.78-2.74,1.8-6.38-.24-9.21ZM795.73,534.33c.2-2.72-.96-5.5-3.35-7.25-12.92-9.49-25.41-19.77-37.3-30.59,14.05-1.91,28.1-5.19,41.96-9.73,4.58,10.48,10.44,20.38,17.56,29.39.91,1.16,2.07,2.01,3.35,2.54.34,2.26.78,4.51,1.34,6.74,1.82,7.29,4.65,14.05,7.95,20.61-5.93-2.59-11.92-5.06-18.04-7.28-3.99-1.45-8.54-2.99-13.46-4.42ZM822.39,476.87c-.42.56-.8,1.16-1.07,1.84-.7,1.71-.78,3.51-.36,5.19-.96,2.88-1.75,5.81-2.35,8.79-2.2-3.76-4.14-7.66-5.91-11.63,3.25-1.32,6.48-2.71,9.7-4.17ZM654.45,451.01c1.1,1.18,2.53,2.08,4.2,2.47.3.07.6.13.91.17,4.58.58,8.74-2.61,9.29-7.13.18-1.5.31-3.01.43-4.52l25.66-15.57c.61.03,1.24,0,1.86-.11,2.82-.5,5.04-2.34,6.12-4.74l7.22-4.38c5.2.31,10.65,1.78,16.35,3.32,6.31,1.7,12.81,3.46,19.74,3.92.05.06.09.12.15.18,4.8,4.61,7.52,11.56,7.09,18.13-.28,4.21,2.6,7.92,6.63,8.88.46.11.93.18,1.42.22,4.76.34,8.86-3.19,9.17-7.88.5-7.55-1.32-15.16-4.96-21.81,8.06-2.28,15.71-5.87,23.21-9.4,13.81-6.51,25.72-12.14,37.33-8.56.11.03.21.04.32.06-2.47,17.2-2.37,34.91.39,51.98-1.97,1.03-3.95,2.04-5.94,3.01-32.45,15.8-67.17,23.56-100.54,22.77,8.97-11.98,16.7-24.86,23.01-38.41,1.98-4.26.08-9.32-4.26-11.3-4.33-2-9.45-.14-11.43,4.12-6.91,14.84-15.65,28.83-25.99,41.58-.61.76-1.03,1.59-1.35,2.46-4.5-.59-8.98-1.3-13.39-2.22-6.81-1.42-13.63-3.2-20.86-5.08-11.76-3.07-23.69-6.17-35.6-7.67l23.84-14.47ZM479.29,254.31c3.24,8.47,8.45,15.97,13.55,23.27,5.96,8.54,11.26,16.16,12.65,24-.62-.18-1.26-.3-1.93-.33-4.61-.2-8.49,3.32-8.67,7.86-.23,6.1-1.13,12.18-2.6,18.13-2.59,2.14-3.55,5.55-2.59,8.65-4.12,11.73-10.55,22.68-18.84,31.96-2.2-10.03-5.9-19.76-11.22-28.74-2.34-3.95-7.46-5.29-11.43-3.02-3.98,2.28-5.31,7.31-2.98,11.25,21.14,35.66,11.38,87.23-21.31,112.63-2.17,1.68-3.22,4.21-3.13,6.74-7.62,7.11-15.02,14.46-22.18,22.05-.81-11.48-2.12-22.95-3.88-34.35.44.01.88-.04,1.31-.1,1,.84,2.19,1.45,3.49,1.76.79.19,1.63.26,2.48.21,4.14-.25,7.35-3.45,7.71-7.4,2.08-.31,4.21-.35,6.3-.08,4.58.58,8.74-2.6,9.3-7.12.56-4.51-2.73-8.66-7.28-9.22-2.64-.34-5.3-.38-7.95-.18,2.19-20.31,10.9-40.03,20.05-60.65,10.69-24.13,21.75-49.09,22.19-76.21.03-1.7-.47-3.29-1.34-4.63l28.28-36.48ZM400.96,251.1c-2.3,19.1,1.52,39.54,6.24,60.45.51,2.26,2,4.06,3.93,5.08-2.51,2.79-5.07,5.21-7.69,6.85.24-5.18.23-10.41-.15-15.7-.32-4.54-4.31-7.99-8.92-7.7-4.6.29-8.07,4.2-7.75,8.74,3,42.05-17.82,82.04-38.66,120.74.07-1.34.16-2.69.28-4.03,1.29-.64,2.43-1.59,3.28-2.85,2.39-3.56,1.65-8.25-1.51-11.03.47-2.91.97-5.78,1.46-8.59l3.64-20.85c3.53-1.45,5.77-5.09,5.18-9.01l-1.66-11.12,4.95-28.33c21.21-23.44,31.29-53.51,37.39-82.63ZM283.51,600.85c-1.5-1.25-3.02-2.48-4.56-3.69,11.23-.08,22.45-3.62,31.49-10.12,1.05,3.57,2.29,7.11,3.75,10.63.42,1,1.04,1.83,1.76,2.57-5.66,7.64-11.63,14.81-18.12,21.09-2.34-8.12-8.52-15.66-14.32-20.48ZM336.35,569.93c-3.09,4.82-6.2,9.66-9.36,14.45-2.16-6.6-3.9-14.43-4.42-23.86.46-1.62.43-3.36-.16-5-.17-21.12,5.73-49.71,25.19-89.36,2.97-1.69,4.6-4.97,4.2-8.3.71-1.36,1.4-2.71,2.13-4.1,2.27-4.28,4.59-8.57,6.91-12.88,17.33-32.13,35.06-65.11,40.82-100.44,12.78-2.47,21.84-14.13,27.86-21.89l4.08-5.27c-3.5,17.26-10.95,34.11-18.74,51.68-10.26,23.15-20.82,46.99-21.88,72.62-.36.21-.71.46-1.06.68-1.08-5.51-2.25-11.01-3.55-16.47-1.06-4.43-5.55-7.21-10.05-6.2-4.49,1.01-7.27,5.43-6.21,9.86,5.83,24.44,9.35,49.54,10.45,74.6.04.81.21,1.57.46,2.3-.79,1.01-1.38,2.18-1.62,3.52-.13.74-.13,1.47-.06,2.18-1.62,1.9-3.21,3.82-4.8,5.75-1.26-5.3-4.22-10.34-7.64-13.73-6-5.97-6.94-8.9-7.08-9.67,2.81-3.45,2.33-8.53-1.13-11.44-3.52-2.95-8.8-2.56-11.77.89-5.02,5.81-7.67,16.05,8.17,31.79,1.92,1.91,3.11,4.91,3.36,6.64-3.49,1.63-5.43,5.52-4.46,9.37.7,2.76,2.76,4.8,5.28,5.72-5.62,7.57-11.06,15.31-16.28,23.24-2.88,4.37-5.73,8.83-8.6,13.31ZM652.8,639.93l-46.97-4.87c-15.04-1.56-30.53-3.2-44.97-7.38,13.78-12.8,36.23-15.97,53.14-7.23,4.09,2.11,9.13.58,11.26-3.45,2.12-4.02.52-9.01-3.58-11.13-24.2-12.52-55.44-7.63-74.3,11.65-1.21,1.24-1.94,2.76-2.2,4.35-9.25-4.26-17.92-9.79-25.64-16.36,2.06-.29,4.13-.54,6.18-.88,7.67-1.27,15.29-2.9,22.67-4.48,11.64-2.49,22.64-4.84,33.92-5.94,22.84-2.22,46.73,1.17,70.14,9.48-1.64,11.97-1.5,24.22.36,36.23ZM784.42,687.26c-10.41-12.74-21.19-25.92-32.8-37.98-11.83-12.28-24.54-23.14-37.84-32.5,5.48-1.62,10.78-3.83,15.77-6.59.39.16.77.32,1.19.43l26.73,6.72c2.14,17.8,10.98,34.98,24.45,47.05,1.08.97,2.35,1.61,3.68,1.93,2.87.68,6.01-.15,8.12-2.45,3.09-3.36,2.81-8.57-.62-11.64-8.91-7.98-15.23-18.85-17.95-30.44l48.78,12.27c1.02.26,2.11.52,3.15.78-5.78,14.72-9.75,30.03-11.87,45.59-4.2-.52-8.31-1.99-11.81-4.36-3.83-2.58-9.02-1.64-11.6,2.11-2.59,3.75-1.59,8.88,2.22,11.46,4.37,2.95,9.31,5.1,14.47,6.32,1.71.41,3.44.7,5.19.89-.43,8.27-.36,16.58.25,24.87-10.12-10.74-19.7-22.46-29.51-34.47ZM827.95,618.1l-57.5-14.46c-1.46-1.14-3.28-1.84-5.28-1.82-.46,0-.91.07-1.35.15l-17.4-4.38c4.04-3.98,7.65-8.39,10.64-13.21,2.4-3.87,1.16-8.94-2.78-11.34-3.93-2.4-9.08-1.21-11.48,2.66-10.46,16.83-30.08,27.65-50.16,27.75-14.23-7.98-28.92-14.28-43.76-18.77l70.12-28.46c10.61-4.3,21.58-8.75,32.65-10.28,14.57-2,30.57.56,51.87,8.27,24.59,8.91,47.59,21.06,68.68,36.16-.1.02-.2,0-.3.03-4.52.89-7.43,5.22-6.5,9.68,1.49,7.17,2.5,14.42,3.07,21.71-12.91,3.22-27.57-.43-40.52-3.69Z"/>
  <path class="cls-2" d="M691.89,6.34c1.1,0,2.14.42,2.93,1.17.79.76,1.24,1.76,1.25,2.84.02,1.05-.38,2.04-1.13,2.79-21.56,21.91-30.69,53.08-36.78,80.69l-1.89,8.58,7.89-3.88c11.7-5.76,23.9-10.03,36.25-12.7.32-.07.64-.1.96-.1,2.07,0,3.91,1.43,4.36,3.41.25,1.09.06,2.22-.54,3.16-.62.97-1.59,1.64-2.75,1.89-4.28.92-8.79,2.13-13.41,3.6l-13.02,4.13,13.07,3.94c6.52,1.97,12.91,4.43,19.01,7.31,1.08.51,1.89,1.4,2.28,2.5.37,1.06.31,2.2-.17,3.2-.72,1.5-2.23,2.43-3.94,2.43-.35,0-.7-.04-1.04-.12-.3-.07-.6-.18-.9-.32-11.8-5.58-24.35-9.31-37.29-11.09-.37-.05-.79-.19-1.29-.42l-1.96-.93-1.9,1.05c-1.78.99-3.64,2.07-5.51,3.21l-.78.48-.51.75c-.14.21-.3.4-.46.57l-.91.91-.25,1.26-.22,1.14-.28,1.45c-1.87,9.6-3.79,19.53-6,29.17-1.9,8.31-4.17,16.87-6.93,26.17l-1.86,6.26,6.47-.87c3.21-.43,6.37-.49,9.87-.51,4.05-.02,7.87-.05,11.29-.81,7.63-1.69,14.16-8.15,15.86-15.71.44-1.95,2.18-3.31,4.23-3.31.34,0,.68.04.99.11l.07.02c2.34.56,3.82,2.86,3.31,5.14-2.44,10.79-11.44,19.67-22.39,22.11-4.35.97-8.84.99-13.18,1.02-7.05.05-13.14.08-16.95,3.89-.45.45-1.04.79-1.76,1.02l-2.02.64-.69,2c-6.68,19.32-14.76,39.31-25.41,62.91l-3.83,8.49,8.91-2.7c4.99-1.51,10.03-2.28,14.97-2.28.55,0,1.11,0,1.66.03,2.44.09,4.37,2.09,4.3,4.46-.07,2.3-1.97,4.1-4.33,4.1-.05,0-.11,0-.17,0-.48-.02-.96-.03-1.44-.03-9.76,0-19.6,3.55-26.99,9.73-.51.43-1.12.73-1.8.89l-1.98.47-.87,1.84c-4.21,8.9-8.51,17.84-12.91,26.98-2.86,5.95-6.11,12.68-9.4,19.23l-2.98,5.94,6.65.18c.6.02,1.19.02,1.79.02,12.54,0,25.61-3.65,36.79-10.29,11.56-6.86,20.57-16.37,26.04-27.51.72-1.47,2.23-2.39,3.93-2.39.68,0,1.35.15,1.96.45,1.08.52,1.88,1.42,2.26,2.52.37,1.06.3,2.2-.2,3.2-.81,1.65-1.75,3.35-2.86,5.2l-9.77,16.21c-.91.07-1.81.15-2.71.24l-1.32.14-1,.88c-14.51,12.66-33.75,19.91-52.78,19.91-3.37,0-6.75-.23-10.05-.68l-2.87-.39-1.4,2.53c-8.34,15.07-16.26,26.84-24.93,37.03-16.53,19.43-37.16,34.47-57.14,49.03-6.45,4.71-13.13,9.57-19.56,14.51-20.67,15.88-40.21,33.66-58.08,52.83l-5.64,6.05,8.21,1.02c5.7.71,10.68,1.05,15.24,1.05,9.5,0,17.55-1.52,24.62-4.65,11.41-5.05,20.1-14.18,29.31-23.86,2.43-2.55,4.94-5.19,7.49-7.73,14.67-14.57,29.1-21.96,42.92-21.96,1.57,0,3.15.1,4.69.28,2.28.29,3.92,2.31,3.66,4.5-.24,1.99-1.97,3.5-4.03,3.5-.17,0-.35-.01-.53-.03-1.19-.15-2.42-.22-3.63-.22-11.56,0-24.05,6.59-37.13,19.59-2.44,2.42-4.85,4.96-7.18,7.4l-.16.17c-9.34,9.81-19,19.96-31.89,25.67-8.14,3.6-17.42,5.36-28.38,5.36-9.83,0-19.53-1.45-26.89-2.72l-2.36-.41-1.56,1.82c-11.29,13.17-22.01,27.14-31.87,41.51l-2.55,3.72,3.88,2.3c12.11,7.18,25.14,13.36,38.75,18.37l1.32.48,1.34-.4c3.72-1.1,7.49-2.36,11.21-3.73l1.6-.59.74-1.53c4.53-9.35,7.1-19.62,7.41-29.69.07-2.15,1.85-3.83,4.06-3.83.05,0,.11,0,.17,0,2.29.08,4.09,1.96,4.02,4.19-.18,5.74-1.03,11.6-2.52,17.42l-2.27,8.84,8.21-3.99c7.04-3.42,14.53-7.42,22.92-12.23l5.84-3.35-5.55-3.8c-1.77-1.21-2.31-3.47-1.27-5.25.72-1.23,2.08-2,3.55-2,.73,0,1.46.19,2.11.56,2.43,1.39,5.03,2.71,8.17,4.14l2.03.93,1.91-1.15c2.35-1.42,4.7-2.84,7.04-4.26l85.99-52.2,1.69-1.03.29-1.96c.08-.52.22-.95.44-1.34,7.63-13.45,9.24-30.26,4.32-44.96-.34-1-.26-2.07.22-3.01.48-.96,1.33-1.67,2.36-2,.42-.13.85-.2,1.28-.2,1.82,0,3.42,1.13,3.98,2.82,3.35,10.01,4.08,20.99,2.11,31.74l-1.36,7.43,7.04-2.72c1.83-.71,3.66-1.33,5.44-1.84l.54-.16.48-.29,24.42-14.82,2.09-1.27-.06-2.45c0-.14-.01-.28-.02-.42.7-16.25-7.38-33.05-20.62-42.83-1.58-1.17-3.21-2.24-4.79-3.28l-.28-.19c-3.84-2.52-8.2-5.37-11.61-9.23-9.42-10.68-9.51-25.49-8.79-39.74.11-2.11,1.89-3.76,4.05-3.76.08,0,.16,0,.26,0,2.28.12,4.04,2.03,3.93,4.26-.66,13.15-.65,25.65,6.78,34.06,2.66,3.01,6.18,5.32,9.92,7.78l.04.03c1.79,1.17,3.64,2.38,5.42,3.7,1.04.77,2.14,1.66,3.38,2.72l4.28,3.7,2.33-5.16c3.69-8.17,7.95-16.05,12.67-23.41l1.93-3.01-2.65-2.4-18.56-16.83c-.81-.74-1.29-1.74-1.33-2.81-.04-1.05.33-2.05,1.04-2.82.78-.84,1.85-1.3,3.02-1.3,1.06,0,2.07.39,2.85,1.1l16.89,15.32,3.38,3.07,2.8-3.61c3.69-4.76,7.54-9.29,11.45-13.46.78-.83,1.85-1.29,3.02-1.29,1.06,0,2.08.39,2.86,1.11.81.74,1.28,1.74,1.32,2.81.04,1.05-.34,2.05-1.06,2.82-14.35,15.28-25.75,32.8-33.86,52.05-.19.46-.49.88-.89,1.27l-2.49,2.43,1.9,2.91c4.96,7.6,8.16,16.3,9.25,25.17l.8,6.48,5.59-3.39,16.85-10.23,2.04-1.24v-2.39c-.05-9.63-1.42-19.08-4.08-28.08-.3-1.01-.18-2.07.32-2.99.52-.94,1.39-1.62,2.44-1.92.37-.1.76-.16,1.14-.16,1.86,0,3.51,1.22,4.02,2.96,1.96,6.63,3.28,13.6,3.93,20.73l.62,6.73,5.78-3.51,16.58-10.07,2.5-1.52-.54-2.87-9.92-52.92c-.19-1.03.03-2.08.63-2.94.62-.89,1.55-1.48,2.64-1.67.25-.04.5-.07.74-.07,2.02,0,3.74,1.41,4.11,3.35l8.33,44.42,1.03,5.51,5.01-2.51c.52-.26,1.02-.41,1.54-.46.7-.07,1.42-.1,2.19-.13h.19s1.09-.05,1.09-.05l.93-.57,24.46-14.85.79-.48.7-.43,2.87-1.74-1.04-3.19c-9.79-29.89-25.91-58.07-46.59-81.51-.77-.87-1.15-1.98-1.07-3.11.08-1.12.6-2.14,1.46-2.88.79-.68,1.81-1.05,2.87-1.05,1.3,0,2.54.55,3.39,1.52,6.06,6.87,11.86,14.28,17.23,22.02l5.07,7.3,2.46-8.54c3.56-12.35,5.8-25.03,6.64-37.69.15-2.21,2.05-3.94,4.32-3.94.11,0,.22,0,.34.01,2.43.17,4.28,2.24,4.12,4.61-1.22,18.17-5.1,36.1-11.54,53.29l-.69,1.85.98,1.72c7.24,12.75,13.32,26.12,18.07,39.75l1.77,5.07,4.51-2.91c3.01-1.94,5.48-3.58,7.77-5.16l3.51-2.42-2.45-3.49c-.62-.88-.88-1.94-.74-2.99.28-2.09,2.12-3.67,4.29-3.67.21,0,.42.01.63.04,2.45.34,5.03.65,7.88.96l1.84.2,1.39-1.22c1.44-1.25,2.96-2.65,4.64-4.27l3.69-3.55.04.23,1.16-1.39,1.81-1.74-.33-.03,3.13-3.75c4.65-5.57,9-11.71,12.95-18.28l.12.61,3.02-5.88,3.33-5.57-.57.22c.21-.41.41-.82.62-1.24l.31-.63.95-1.91-.97-1.9c-.33-.65-.79-1.95-.2-3.44.51-1.27,1.59-2.2,2.98-2.54l2.05-.51.82-1.94c7.59-17.85,13.45-37.32,19.11-56.14,11.59-38.52,23.58-78.36,51.19-108.14.78-.84,1.86-1.3,3.03-1.3,1.05,0,2.06.39,2.84,1.09.82.74,1.29,1.73,1.34,2.8.05,1.05-.32,2.05-1.04,2.82-26.37,28.45-37.58,65.67-49.44,105.08-2.25,7.48-4.29,14.24-6.48,21.13l-1.38,4.35,4.45,1.04c9.07,2.12,18.44,3.19,27.85,3.19,12.5,0,24.67-1.86,36.2-5.54.44-.14.9-.21,1.36-.21,1.93,0,3.64,1.21,4.24,3.01.36,1.07.28,2.21-.23,3.21-.52,1.02-1.42,1.78-2.53,2.13-7.24,2.31-15.05,3.99-23.2,4.98l-6.97.85-7.2.1c-.64,0-1.27.01-1.9.01-10.3,0-20.34-1.15-29.85-3.41-.24-.06-.47-.12-.71-.18l-.49-.12-3.73-.92-1.27,3.62c-2.06,5.86-4.1,11.23-6.24,16.44l-2.11,5.14,5.52.66c2.11.25,4.27.38,6.43.38,14.06,0,27.66-5.22,37.31-14.33l5.42-5.11,3.02,3.72c1.36,1.68,1.29,4.01-.17,5.54-11.38,11.94-27.89,18.78-45.3,18.78-4.27,0-8.52-.43-12.63-1.27l-3.19-.65-1.45,2.91c-7.26,14.6-15.38,26.73-24.83,37.09l-6.4,7.01,9.49.06c.44,0,.87,0,1.31,0,24.19,0,45.2-4.43,62.46-13.16,16.21-8.2,30.15-20.54,43.63-32.48.8-.71,1.84-1.1,2.92-1.1,1.27,0,2.49.53,3.34,1.46.79.86,1.18,1.96,1.12,3.1-.06,1.12-.56,2.15-1.41,2.9-13.89,12.3-28.26,25.02-45.46,33.72-18.54,9.38-40.91,14.13-66.5,14.13-6,0-12.26-.26-18.61-.78l-1.66-.14-1.31,1.03c-6.82,5.39-14.47,10.66-24.82,17.11l-1.08.67-.53,1.15c-.31.68-1.08,1.89-2.73,2.35-.31.09-.67.13-1.11.13-.07,0-.15,0-.22,0l-1.25-.04-1.07.65-1.23.75-1.77,1.07-8.04,4.88-8.43,5.12,9.52,2.57c5.88,1.59,12.54,3.39,18.92,3.43h.23c11.31,0,22.16-5.12,33.68-10.55,11.38-5.37,23.14-10.92,35.35-10.92,3.59,0,7,.46,10.43,1.41l3.24.9,1.6-2.96c.75-1.4,2.22-2.26,3.82-2.26.34,0,.69.04,1.04.12,2.36.56,3.84,2.88,3.3,5.17-4.15,17.67-5.21,36.66-3.08,54.91l.77,6.58,5.64-3.47c30.72-18.91,58.96-44.93,83.95-77.32.77-1,1.96-1.58,3.26-1.58.64,0,1.61.15,2.55.86.88.66,1.45,1.62,1.59,2.69.14,1.04-.14,2.07-.78,2.9-28.57,37.04-61.29,65.88-97.25,85.73l-4.98,2.75.27.26-13.3,6.04c-3.26,1.48-6.47,2.86-9.54,4.1l-4.05,1.64,1.78,3.99c1.99,4.46,3.99,8.41,6.13,12.05l5.59,9.55,2.19-10.85c.55-2.71,1.3-5.5,2.22-8.29l.39-1.16-.29-1.19c-.15-.61-.25-1.55.17-2.57.11-.27.28-.55.55-.91l8.8-11.79,3.16,3.09c1.33,1.3,1.62,3.3.68,4.85l-.08.14-2.57,4.22,4.77,1.8c27.93,10.53,56.95,18.27,86.2,23,2.47.43,4.11,2.6,3.74,4.94-.33,2.07-2.13,3.57-4.28,3.57-.24,0-.49-.02-.73-.06-10.9-1.76-21.86-3.95-32.57-6.49-18.86-4.48-37.65-10.25-55.85-17.13l-4.45-1.68-1.15,4.61c-2.47,9.93-2.48,20.35-.04,30.16,2.66,10.66,8.06,20.52,13.82,30.52.64,1.1.57,2.17.41,2.87l-.75,3.15,2.85,1.54c18.09,9.76,35.09,21.32,50.54,34.36.84.71,1.35,1.69,1.43,2.77.08,1.04-.25,2.06-.94,2.85-.77.89-1.91,1.4-3.11,1.4-1,0-1.97-.35-2.74-1-2.96-2.5-5.91-4.83-8.4-6.78l-1.75-1.37.23-.04-3.22-2.3-4.3-3.36.07.34-.89-.64c-21.47-15.37-44.91-27.71-69.7-36.7-17.28-6.26-31.14-9.17-43.61-9.17-3.48,0-6.93.23-10.28.69-11.59,1.59-22.8,6.14-33.67,10.55l-70.12,28.46-11.08,4.5,11.44,3.46c14.53,4.4,28.97,10.59,42.91,18.41l.97.55h1.11c21.47-.11,42.56-11.79,53.72-29.75.74-1.19,2.05-1.9,3.49-1.9.77,0,1.53.21,2.2.62.95.58,1.62,1.48,1.87,2.54.24,1.02.07,2.07-.48,2.96-2.72,4.37-6.09,8.55-10.02,12.43l-5.35,5.27,7.29,1.83,17.4,4.38.86.22.88-.15c.26-.04.52-.08.69-.09h.06c1.15,0,2.03.5,2.56.92l.71.55.87.22,57.5,14.46c9.44,2.38,20.13,5.07,30.63,5.07,4.28,0,8.3-.46,11.95-1.37l3.47-.87-.28-3.56c-.6-7.61-1.66-15.09-3.14-22.24-.21-1.03-.01-2.07.57-2.95.57-.85,1.43-1.45,2.43-1.69.11-.01.22-.02.34-.04l3.96-.64.93,4.58c2.68,13.13,3.92,26.65,3.69,40.19l-.06,3.69,3.65.56c.16.02.32.04.47.06l41.77,9.93c1.09.26,2.01.91,2.59,1.84.57.91.75,1.98.51,3.01-.43,1.8-2.05,3.06-3.95,3.06-.33,0-.66-.04-.99-.12l-39.78-9.45-4.68-1.11-.5,4.78c-.36,3.44-.76,6.58-1.24,9.59l-.45,2.89,2.54,1.44c14.01,7.96,26.43,18.08,36.91,30.08.72.82,1.07,1.85.99,2.92-.08,1.05-.57,2-1.38,2.69-.95.8-1.98.97-2.67.97-.33,0-.67-.04-1-.12-.86-.2-1.62-.66-2.2-1.32-8.59-9.83-18.63-18.37-29.83-25.38l-4.91-3.07-1.43,5.61c-.46,1.83-.9,3.46-1.34,4.98-1.26,4.43-3,8.19-5.17,11.19l-1.45,2.01,1.05,2.25.06.13c.07.14.16.33.18.39,4.73,15.57,12.91,30.33,23.66,42.68.71.82,1.06,1.86.98,2.92-.08,1.05-.57,2.01-1.38,2.69-.95.8-1.97.97-2.67.97-.34,0-.67-.04-1-.12-.86-.21-1.63-.67-2.21-1.33-10.7-12.29-19.09-27.01-24.27-42.57l-1.05-3.14-3.3.26h-.07c-.36.03-.67.06-.94.06h-2.35s-1.23,2.02-1.23,2.02c-.51.83-1.32,1.45-2.28,1.74-.54.16-1.08.24-1.63.24-.42,0-.84-.05-1.26-.15-1.79-.43-3.21-1.69-3.89-3.48-1.25-3.25.26-7.11,3.29-8.43,1.08-.47,2.24-.7,3.53-.7,1.31,0,2.54.24,3.51.43l.18.04c.38.08.85.18,1.4.23.14.01.29.02.44.02,4.66,0,8.24-6.8,9.9-12.62,4.13-14.51,6.36-29.76,6.64-45.32l.09-5.13-5.05.9c-3.3.58-6.82.88-10.48.88-4.16,0-8.53-.37-13.37-1.12l-3.3-.51-1.27,3.09c-12.63,30.81-16.77,64.5-11.98,97.44.12.79-.02,1.59-.38,2.31l-1.49,2.95,2.5,2.16c9.03,7.81,17.95,14.08,27.24,19.18,1.04.57,1.8,1.51,2.12,2.63.31,1.08.18,2.21-.36,3.18-.76,1.36-2.23,2.2-3.82,2.2-.35,0-.7-.04-1.03-.12-.39-.09-.78-.24-1.14-.44-25.93-14.23-45.77-35.46-63.35-56.3l-5.89-6.98-1.51,9.01c-1.54,9.23-.05,18.61,4.2,26.42.51.94.62,2.01.32,3.02-.31,1.01-1,1.85-1.96,2.35-.6.32-1.26.48-1.94.48-.33,0-.66-.04-.99-.12-1.17-.28-2.16-1.03-2.72-2.06-7.09-13.03-7.72-29.53-1.63-43.07l1.07-2.39-1.66-2.02-.24-.29-.87-1.06c-5.49-6.72-10.88-13.29-16.37-19.72l-4.41-5.16-2.68,6.24c-.06.13-.11.26-.16.41-6.96,14.04-7.49,31.06-1.42,45.57.41.98.41,2.05,0,3.02-.41.98-1.2,1.75-2.2,2.15-.5.2-1.03.3-1.56.3-.33,0-.66-.04-.98-.12-1.31-.31-2.4-1.22-2.9-2.43-6.97-16.66-6.33-36.2,1.71-52.27.68-1.36,1.92-1.87,2.59-2.05l6.73-1.79-4.7-5.14-.78-.85c-1.61-1.77-3.28-3.59-4.97-5.35-21.16-21.97-46.02-39.82-71.9-51.64l-5.39-2.46-.57,5.9c-1.04,10.8-.5,21.81,1.61,32.71l.6,3.08,3.12.32,16.08,1.67c2.23.23,3.94,2.26,3.72,4.43-.2,2.03-1.94,3.56-4.04,3.56-.15,0-.3,0-.45-.02l-9.72-1.01-6.73-.7,2.33,6.35c1.46,3.99,2.82,7.25,4.27,10.25.46.96.52,2.04.17,3.03-.36,1-1.1,1.8-2.08,2.26-.56.26-1.15.39-1.75.39-.33,0-.66-.04-.99-.12-1.24-.3-2.27-1.11-2.81-2.23-2.77-5.73-5.12-11.82-6.99-18.12l-.81-2.71-2.81-.29-52.41-5.43c-13.25-1.37-26.94-2.79-40.27-5.96-4.08-.97-7.84-2.03-11.5-3.24-17.1-5.65-33.04-15.14-46.08-27.44-1.14-1.07-1.27-2.39-1.24-3.07l.18-4.67-4.67.29c-5.27.33-10.62.5-15.89.5-8.43,0-16.93-.43-25.26-1.28l-9.52-.97,5.7,7.69c1.75,2.37,3.44,4.78,5.16,7.26l1.81,2.6c9.48,13.52,18.94,20.38,28.12,20.38.43,0,.86-.01,1.28-.04.1,0,.2-.01.3-.01,2.17,0,3.99,1.65,4.16,3.77.08,1.04-.25,2.05-.94,2.85-.71.82-1.72,1.32-2.83,1.4-.64.04-1.29.07-1.93.07-2.13,0-4.28-.25-6.39-.75-9.82-2.33-19.44-10.14-28.59-23.19l-1.84-2.64c-6.28-9.05-12.78-18.41-21.91-22.65l-.42-.2-.46-.1c-9.94-2.16-19.84-4.93-29.42-8.25l-1.2-.42-1.23.32c-.36.09-.71.19-1.07.28-.65.17-1.3.34-1.95.5-.32.08-.65.12-.98.12s-.65-.04-.97-.11c-1.42-.34-2.57-1.43-3-2.84l-.58-1.92-1.86-.76c-11.43-4.68-22.29-10.07-32.3-16.04l-.07-.04-3.53-2.2-2.25,3.5c-.56.87-1.12,1.73-1.67,2.59-.86,1.33-1.72,2.65-2.58,4-19.57,30.55-39.8,62.14-72.61,75.19-.5.2-1.01.3-1.54.3-.33,0-.66-.04-.98-.12-1.31-.31-2.4-1.23-2.91-2.44-.41-.98-.41-2.05,0-3.02.41-.98,1.2-1.75,2.21-2.15,3.3-1.31,6.59-2.92,10.05-4.91l2.24-1.28-.12-2.58c-.05-1.11.34-2.14,1.1-2.91,1.45-1.47,2.1-3.23,1.98-5.4-.31-5.77-5.69-12.72-10.88-17.05-12.6-10.5-26.43-19.58-41.11-26.97-3.02-1.52-5.96-2.92-9.49-4.6-10.26-4.87-20.87-9.9-29.95-17.32-3.68-3.01-6.95-6.26-10.26-9.62l-3.19-3.24-3,3.42c-3.17,3.62-6.2,7.51-9,11.57l-1.25,1.8.76,2.06c.27.74.32,1.5.15,2.24-.38,1.61-1.73,2.79-3.45,3.01l-2.14.27-1.04,1.89c-11.65,21.11-17.34,44.57-16.47,67.82.04,1.04-.33,2.04-1.05,2.81-.75.8-1.77,1.26-2.89,1.29h-.13c-.33,0-.66-.04-.98-.11-1.81-.43-3.13-2-3.19-3.81-.86-22.92,4.38-46.26,15.13-67.5l2.43-4.79-5.23-1.23-54.38-12.82c-3.93-.93-9.75-2.03-15.18-2.03-7.77,0-13.02,2.25-15.6,6.69-.72,1.24-2.08,2-3.55,2-.33,0-.66-.04-.97-.11-.39-.09-.77-.24-1.12-.45-.97-.55-1.66-1.44-1.94-2.49-.27-1.01-.13-2.07.39-2.97,3.97-6.83,10.84-10.31,21-10.65l9.76-.33-6.92-6.89c-.31-.31-.6-.62-.9-.93-.25-.26-.5-.52-.75-.78l-2.03-2.08-2.67,1.15c-.57.24-1.19.37-1.81.37-.86,0-1.71-.25-2.43-.72-8.55-5.53-19.09-8.58-29.68-8.58-5.43,0-10.7.79-15.67,2.33-.44.14-.89.2-1.34.2-.35,0-.7-.04-1.05-.12-1.53-.36-2.73-1.45-3.21-2.92-.35-1.07-.26-2.21.25-3.21.53-1.02,1.43-1.77,2.55-2.12,5.91-1.84,12.11-2.77,18.43-2.77,5.04,0,10.1.6,15.02,1.77l10.75,2.57-6.29-9.09c-2.15-3.1-3.96-5.87-5.53-8.46-.56-.92-.72-1.98-.47-3.01.26-1.03.91-1.89,1.84-2.44.64-.38,1.37-.57,2.11-.57,1.47,0,2.85.77,3.61,2.01,11.34,18.62,26.66,35.31,44.33,48.3.1.09.2.19.31.27l.76.62.95.22,48.17,11.36,2.86.67,1.63-2.44c3.44-5.16,7.24-10.1,11.3-14.69l2.98-3.36-3.54-2.77c-11.48-8.98-25.99-13.92-40.85-13.92-1.61,0-3.24.06-4.84.18l-3.26.24-.58,3.22c-.18.97-.71,1.84-1.51,2.44-.72.54-1.58.82-2.49.82-1.32,0-2.54-.59-3.35-1.63l-3.79-4.89c-.83-1.07-1.07-2.46-.63-3.72.44-1.26,1.5-2.22,2.83-2.55,5.62-1.41,11.49-2.12,17.44-2.12,17.18,0,34.44,6.05,47.36,16.6,1.81,1.48,3.72,3.18,5.81,5.2l.02.02.02.02s.03.03.05.05c.02.02.04.04.05.06l.04.04.04.04c1.73,1.68,3.43,3.4,5.17,5.16l.04.04c3.51,3.57,6.83,6.94,10.52,9.95,8.28,6.76,17.96,11.36,28.23,16.23l.29.14c3.1,1.47,6.3,2.99,9.38,4.55,5.74,2.89,11.46,6.09,16.99,9.51l3.45,2.13,2.27-3.36c.76-1.12,2.02-1.79,3.39-1.79.47,0,.94.08,1.4.24,4.12,1.44,8.51,2.18,13.03,2.18,11.42,0,22.63-4.78,29.98-12.78.14-.16.33-.32.57-.5l1.95-1.46-.28-2.42c-.28-2.45-.49-4.96-.62-7.68l-.06-1.17-.66-.98c-7.02-10.44-14.77-21.24-23.89-29.43l-1.13-1.02-1.52-.06c-.32-.01-.59-.05-.82-.1-1.17-.28-2.16-1.03-2.72-2.06-.15-.28-.29-.57-.43-.86-.13-.28-.27-.55-.41-.82l-.52-1-.95-.61c-4.36-2.81-8.68-4.82-13.2-6.14-8.5-2.49-17.56-2.57-27.16-2.65-12.7-.1-25.84-.2-37.58-6.44-3.7-1.96-6.89-4.36-9.52-6.44l-1.52-1.2-1.9.37c-.28.05-.57.08-.86.08-.76,0-1.46-.19-2.1-.57-1.96-1.15-4.31-1.76-6.78-1.76-3.86,0-7.47,1.44-9.92,3.94-.77.79-1.82,1.23-2.96,1.23-.33,0-.67-.04-.99-.12-.72-.17-1.39-.53-1.93-1.05-.79-.76-1.24-1.76-1.26-2.84-.02-1.05.38-2.04,1.11-2.8,1.68-1.71,3.68-3.13,5.97-4.21l7.23-3.41-6.89-4.05c-21.29-12.51-45.47-19.43-69.94-19.99-2.29-.05-4.13-1.91-4.09-4.13.04-2.18,1.82-3.89,4.07-3.89h.1c13.19.31,26.44,2.39,39.39,6.19l7.15,2.1-1.87-7.21c-1.32-5.11-1.88-10.88-1.69-17.64l.11-3.88-3.85-.44c-11.24-1.28-21.98-3.97-31.01-6.43l-1.92-.53-1.63,1.15c-.44.31-.82.51-1.18.63-14.14,4.47-26.72,14.18-34.53,26.62-.79,1.26-2.18,2.02-3.71,2.02-.35,0-.7-.04-1.04-.12-.47-.11-.91-.3-1.33-.55-1.01-.62-1.71-1.59-1.98-2.72-.26-1.09-.07-2.22.52-3.16,5.61-8.94,13.52-16.75,22.88-22.61l8.31-5.2-9.49-2.47c-.5-.13-1.01-.27-1.51-.4-1.04-.28-2.12-.56-3.19-.82-.38-.09-.76-.18-1.13-.27-11.64-2.76-22.29-4.17-31.66-4.17-11.34,0-21.4,2.05-29.92,6.1-.6.29-1.24.43-1.91.43-.35,0-.7-.04-1.05-.12-1.31-.31-2.39-1.17-2.98-2.35-.5-1.02-.58-2.17-.21-3.23.37-1.07,1.15-1.94,2.2-2.43,9.84-4.68,20.87-6.96,33.72-6.96,10.12,0,21.49,1.48,33.8,4.41l.08.02c.36.08.72.17,1.08.26,6.69,1.63,13.33,3.52,19.76,5.35,12.86,3.66,26.15,7.45,39.45,9l4.21.49.48-4.21.05-.42.06-.51.49-4.41c3.02-27.88-6.42-38.12-12.32-41.74-1.01-.62-1.72-1.59-1.98-2.72-.26-1.09-.07-2.21.53-3.16.79-1.26,2.18-2.02,3.71-2.02.83,0,1.65.23,2.36.68,5.69,3.49,10.03,8.64,12.89,15.29l1.67,3.89,3.88-1.68,9.86-4.26c.56-.24,1.15-.37,1.76-.37,1.77,0,3.38,1.03,4.1,2.62.47,1.04.5,2.18.09,3.23-.41,1.06-1.23,1.9-2.29,2.36l-12.76,5.51-2.84,1.23.31,3.08c.59,5.84.52,12.27-.22,19.07l-.51,4.49c-1.72,15-3.49,30.51,4.41,41.98.37.53.6,1.17.69,1.89l.29,2.33,2.13.98c11.09,5.12,21.46,11.51,30.84,18.97,1.01.8,2,1.62,3.03,2.46,3.82,3.12,7.42,6.06,11.47,8.21,7.5,3.98,16.11,4.86,22.79,5.19l4.7.23-.28-4.7c-1.72-29.25-25.65-56.7-54.46-62.5h-.02s-.04-.01-.04-.01l-.1-.02c-2.17-.52-3.54-2.59-3.12-4.71.37-1.85,2.04-3.2,3.98-3.2.28,0,.56.03.85.09,16.08,3.2,31.21,12.26,42.6,25.51,11.36,13.22,17.98,29.41,18.65,45.59l.16,3.97,3.98.08c7.25.14,15.02.56,22.71,2.73l7.04,1.98-1.8-7.08c-2.52-9.95-3.5-20.28-2.9-30.7l.12-2.05-1.54-1.36c-.57-.51-1.29-1.38-1.44-2.69-1.62-13.34-12.43-22.85-23.89-32.93-7.02-6.18-14.28-12.56-19.73-20.15-8.76-12.2-12.2-26.69-15.52-40.71v-.06c-1.47-6.15-2.85-11.96-4.66-17.69-2.28-7.22-5.69-14.07-9.84-19.79l-1.96-2.7-3.08,1.27c-.57.23-1.15.35-1.74.35-.34,0-.67-.04-.97-.11h-.03s-.03-.01-.03-.01c-1.16-.28-2.13-.98-2.75-1.98-.6-.97-.79-2.12-.53-3.21.05-.2.1-.4.14-.6.04-.16.07-.32.11-.47l.73-3.03-2.69-1.59c-4.52-2.68-9.22-4.03-13.96-4.03-.21,0-.42,0-.63,0h-.13c-2.37,0-4.36-1.88-4.43-4.2-.04-1.12.37-2.18,1.14-3,.8-.85,1.9-1.33,3.09-1.36.24,0,.49,0,.74,0,4.63,0,9.58,1.09,14.29,3.14l4.69,2.04,1.12-4.99c.64-2.87,1.27-5.79,1.87-8.62l.34-1.61.76-3.55-3.4-1.28c-23.67-8.92-42.31-30.19-47.47-54.21-.24-1.1-.03-2.22.59-3.15.63-.97,1.62-1.63,2.77-1.86.3-.06.6-.09.9-.09,2.1,0,3.93,1.46,4.36,3.47,4.39,20.41,19.39,38.34,39.16,46.8l4.8,2.06,1.01-5.12c1.79-9.11,3.2-16.66,4.42-23.76.35-2.04,2.15-3.52,4.27-3.52.26,0,.53.02.78.07,2.4.43,4.03,2.66,3.63,4.98-3.27,18.94-7.22,38.48-11.74,58.09l-.53,2.3,1.68,1.66c7.4,7.32,13.09,17.15,16.91,29.23,1.91,6.04,3.39,12.29,4.83,18.36,3.27,13.81,6.37,26.86,14.13,37.67,4.87,6.78,11.44,12.56,18.4,18.68,6.76,5.95,13.76,12.1,18.9,19.19l4.72,6.52,2.68-7.59c1.27-3.6,2.73-7.07,4.32-10.29.68-1.38,2.09-2.23,3.68-2.23.64,0,1.27.14,1.85.43,1.01.49,1.76,1.33,2.11,2.37.34,1,.27,2.06-.19,3-11.89,24.07-12.25,53.21-.97,77.96l.45,1,.88.65c6.24,4.61,12.34,10.69,18.64,18.6l6.13,7.68,1.36-9.73c.41-2.96.93-5.99,1.52-9.01l.32-1.62-.86-1.4c-.33-.54-.7-1.4-.59-2.46,1.32-12.67-4.16-26.26-13.94-34.64-.84-.71-1.34-1.7-1.42-2.77-.07-1.05.27-2.06.96-2.85.41-.47.97-.83,1.65-1.09l2.9-1.07-.14-3.09-1.97-43.78c-.05-1.11.34-2.18,1.1-3.01.79-.86,1.88-1.35,3.07-1.4.06,0,.11,0,.17,0,2.36,0,4.36,1.86,4.46,4.15l2.38,52.82c.02.43-.05.89-.21,1.41l-.62,1.98,1.19,1.7c1.13,1.63,2.19,3.36,3.15,5.16l4.43,8.36,3.27-8.88c3.99-10.85,8.91-22.06,15.04-34.27l.74-1.48-.46-1.59c-2.9-10.05-3.51-21.33-1.94-35.48l.29-2.56-2.14-1.43c-13.5-8.99-28.92-19.79-41.13-34.33-2.2-2.61-4.33-5.46-6.34-8.45l-1.61-2.41-2.83.64c-.37.08-.74.13-1.08.13-.31,0-.62-.03-.94-.11h-.02s-.06-.02-.06-.02c-22.24-5.71-42.77-17.04-59.37-32.76-.85-.8-1.33-1.88-1.35-3.02-.02-1.12.4-2.18,1.18-2.99.83-.85,1.95-1.31,3.16-1.31s2.27.44,3.11,1.23c1.93,1.83,4.01,3.67,6.18,5.47l6.07,5.03.83-7.83c1.4-13.24,4.77-27.08,10.6-43.56l1.05-2.97-2.55-1.85c-17.3-12.58-31.99-28.86-42.46-47.1-.57-.99-.72-2.14-.41-3.22.3-1.09,1.02-2,2.03-2.55.67-.37,1.39-.56,2.15-.56,1.61,0,3.11.86,3.9,2.24,9.04,15.74,21.48,30.05,35.96,41.38l4.45,3.48,2.08-5.25c1.7-4.29,3.4-8.48,5.14-12.75,3.03-7.44,5.76-14.17,8.38-21.11l1.1-2.9-2.43-1.92c-6.26-4.94-13.7-8.68-20.92-12.31-3.23-1.63-6.57-3.31-9.81-5.09-16.4-9.03-26.22-19.79-29.16-32-.26-1.09-.08-2.22.51-3.17.61-.98,1.57-1.66,2.72-1.92.33-.08.67-.11,1.01-.11,2.04,0,3.87,1.41,4.34,3.36,2.35,9.74,10.71,18.63,24.85,26.4,3.11,1.71,6.24,3.29,9.54,4.95,5.66,2.85,12.07,6.07,17.84,9.95l4.68,3.14,1.7-5.38c2.45-7.75,4.28-14.97,5.62-22.08l.35-1.88-1.19-1.51c-.47-.59-1.01-1.58-.92-2.89.86-13.15.02-26.48-2.5-39.63l-.23-1.19-.82-.89c-.07-.07-.13-.14-.21-.21-6.62-7.42-17.21-10.57-28.41-13.91-14.24-4.25-28.96-8.64-35.29-22.65-.47-1.04-.5-2.19-.1-3.23.41-1.06,1.22-1.9,2.28-2.36.57-.25,1.16-.37,1.78-.37,1.77,0,3.38,1.02,4.09,2.61,4.68,10.36,16.84,13.99,29.72,17.83,4.59,1.37,9.79,2.92,14.72,4.9l8.81,3.54-3.26-8.92c-7.05-19.25-17.46-36.65-30.95-51.71-.78-.87-1.16-1.97-1.09-3.11.07-1.12.58-2.15,1.44-2.89.79-.69,1.82-1.07,2.89-1.07,1.29,0,2.51.54,3.37,1.5,23.72,26.49,38.68,60.59,42.1,96.03l.68,6.98,5.86-3.86c3.11-2.05,6.38-3.09,9.74-3.09,1,0,2.02.1,2.99.28,2.45.48,4.02,2.69,3.58,5.03-.38,2.01-2.17,3.47-4.26,3.47-.28,0-.57-.03-.84-.08-.4-.08-.82-.12-1.25-.12-4.03,0-7.81,3.44-9.62,6.63-2.34,4.14-3.17,9.08-4.05,14.31l-.41,2.41c-3.88,22.06-12.47,43.14-20.78,63.54-10.62,26.06-20.65,50.68-21.94,77.47-.02.35-.11.74-.29,1.23l-1.24,3.32,3.06,1.8c7.01,4.12,14.45,7.58,22.11,10.28l8.36,2.95-2.98-8.35c-4.02-11.28-5.09-22.75-3.09-33.19.38-1.99,2.17-3.44,4.26-3.44.29,0,.58.03.85.08,2.32.46,3.85,2.52,3.56,4.79l8.32,1.45c4.94-22.55,9.93-44.4,14.84-64.95.46-1.92,2.19-3.26,4.22-3.26.34,0,.68.04,1.02.12h.04c1.16.29,2.14.99,2.76,1.98.61.97.8,2.11.54,3.21-7.97,33.35-15.6,67.54-22.68,101.6l-.34,1.65.89,1.43c2.22,3.58,4.73,7.06,7.48,10.32,9.92,11.8,22.53,21.17,32.42,28l5.43,3.76,1.13-6.51.08-.45.09-.49,6.69-38.32.12-.67-.1-.68-21.68-144.97c-.17-1.11.11-2.21.78-3.11.69-.93,1.72-1.53,2.89-1.69.21-.03.42-.04.63-.04,2.2,0,4.09,1.6,4.41,3.73l14.01,93.66,3.53,23.59,4.79-23.36c.4-1.97,2.18-3.4,4.23-3.4.26,0,.53.02.75.06.73.14,1.43.47,2.07.99l3.86,3.13,2.47-4.31c5.12-8.95,9.4-18.83,13.08-30.18l.62-1.92-1.1-1.69c-.41-.63-.64-1.31-.69-2.03l-4.55-68c-.42-6.36-.86-12.95-2.95-18.83-2.06-5.82-5.67-10.98-9.49-16.44l-26.3-37.58c-.66-.94-.91-2.08-.71-3.19.2-1.11.84-2.07,1.78-2.71.73-.5,1.59-.76,2.49-.76,1.48,0,2.86.71,3.69,1.91l1.24,1.77,9.2,13.15-1.53-15.97-3.01-31.33c-.11-1.11.23-2.2.95-3.06.74-.89,1.8-1.44,2.98-1.54.13-.01.27-.02.4-.02,2.28,0,4.23,1.73,4.44,3.94l5.39,56.14c.06.61-.04,1.24-.29,1.89l-.82,2.11,1.3,1.85,6.07,8.67c3.8,5.43,8.1,11.59,10.55,18.5,2.48,6.98,2.98,14.48,3.42,21.09l1.06,15.78,2.57,38.38,5.82-38.02c.31-2.04.62-4.07.92-6.06.32-2.09,2.12-3.6,4.29-3.6.23,0,.47.02.68.05,2.46.39,4.11,2.55,3.75,4.92-1.31,8.66-2.62,17.16-4.19,25.89l8.23,1.88c.68-2.43,1.56-4.95,2.7-7.71l.51-1.23-.29-1.3c-.33-1.48.42-2.99,1.83-3.67l1.17-.56.65-1.12c5.47-9.41,13.09-17.11,20.46-24.56,3.28-3.31,6.22-6.31,8.99-9.37l2.76-3.05-2.97-2.84c-1.26-1.2-1.62-3.03-.9-4.54.66-1.39,2.11-2.28,3.7-2.28.62,0,1.22.14,1.79.4.16.07.32.14.49.21l.1.04,3.49,1.56,1.9-3.31c1.2-2.09,2.1-3.86,2.82-5.58,1.29-3.07,2.33-6.44,3.27-10.59l.68-3-2.64-1.57c-1.02-.6-1.65-1.64-1.71-2.77-.61-12.68-2.66-25.57-6.08-38.33l-.46-1.72-1.55-.87c-.63-.35-1.47-1-1.92-2.09-.65-1.55-.16-2.89.19-3.55l.85-1.61-.58-1.72c-2.36-6.93-5.09-13.67-8.13-20.05l-.32-.66-.52-.52c-.68-.67-1.11-1.5-1.24-2.41l-.1-.69-.32-.62c-.25-.49-.5-.98-.74-1.47-.5-1-1.02-2.04-1.6-3.08-.44-.79-.54-1.69-.28-2.54.25-.86.84-1.56,1.64-1.99.43-.23.92-.36,1.47-.38l2.93-.14.89-2.79,10.84-34.03c.56-1.76,2.24-2.95,4.18-2.95.46,0,.93.07,1.34.2,1.15.36,2.08,1.14,2.62,2.19.52,1,.62,2.14.28,3.2l-14.19,44.54-.5,1.57.7,1.49c2.31,4.97,4.46,10.19,6.4,15.52l1.75,4.82,4.4-2.63c9.59-5.75,17.94-13.94,24.15-23.69l.94-1.47-.37-1.7c-.17-.76-.12-1.51.15-2.21.39-1.03,1.2-1.83,2.28-2.27l1.6-.64.7-1.57c4.49-10.11,6.6-20.96,6.1-31.4-.05-1.12.33-2.18,1.09-3.01.79-.86,1.88-1.36,3.07-1.41.06,0,.13,0,.19,0,1.89,0,3.57,1.2,4.18,2.99l2.18,6.35,4.78-4.71c3.6-3.55,6.6-7.37,8.92-11.37.77-1.32,2.22-2.15,3.79-2.15.78,0,1.55.21,2.23.59,1.03.59,1.77,1.53,2.08,2.65.29,1.08.15,2.21-.41,3.18-4.55,7.86-10.92,14.77-18.42,19.99-.63.44-1.4.69-2.28.74l-3.3.18-.63,3.24c-.95,4.9-2.44,9.89-4.44,14.83l-1.62,4.02,4.06,1.52,40.51,15.17c1.05.39,1.88,1.16,2.34,2.17.44.96.47,2.03.1,3-.59,1.54-2.12,2.58-3.82,2.58-.33,0-.65-.04-.97-.11-.17-.04-.34-.09-.52-.16l-42.26-15.83-3.19-1.2-1.84,2.87c-7.69,11.96-18.17,21.69-30.3,28.13l-2.96,1.57.86,3.24c.98,3.72,1.87,7.59,2.65,11.5l2.67,13.42,5.36-12.59c1.01-2.38,2.1-4.49,3.33-6.44.63-1,1.73-1.59,2.94-1.59.66,0,1.32.19,1.89.54.8.49,1.36,1.26,1.57,2.15.2.86.05,1.74-.42,2.49-1.88,3-3.42,6.47-4.69,10.62l-2.12,6.93,7.07-1.57c16.18-3.58,30.54-14.73,37.48-29.09.71-1.47,2.26-2.42,3.94-2.42.67,0,1.32.15,1.93.44,1.08.51,1.89,1.4,2.28,2.51.37,1.06.31,2.19-.17,3.2-4.56,9.44-11.7,17.68-20.64,23.84-8.92,6.15-19.25,9.96-29.85,11.01l-3.21.32-.54,3.18c-1.25,7.35-2.61,14.52-5.46,21.3-.13.31-.3.66-.48,1.03-.13.27-.27.55-.4.82l-3.03,6.5,7.16-.5c.67-.05,1.39-.1,2.13-.2.19-.02.37-.04.56-.04,2.07,0,3.85,1.51,4.13,3.52.15,1.04-.12,2.07-.76,2.9-.66.86-1.62,1.42-2.72,1.56-1.84.24-3.74.36-5.64.36-2.49,0-5.03-.21-7.55-.61l-2.39-.39-1.54,1.87c-4.12,5.01-8.85,9.79-13.02,14.01-3.77,3.81-7.67,7.76-11.2,11.85l-5.22,6.06,7.95.89c6.03.68,11.73,2.72,16.49,5.9.78.52,1.31,1.31,1.48,2.21.17.87-.02,1.74-.51,2.47-.63.93-1.71,1.48-2.87,1.48-.72,0-1.41-.21-2-.6-4.76-3.19-10.69-4.95-16.69-4.95-2.24,0-4.47.24-6.62.72l-2.07.46-.87,1.93c-9.84,21.77-5.23,48.36-.15,71.57l1.93,8.82,5.53-7.14,46.82-60.41c.66-.84,1.66-1.33,2.76-1.33.3,0,.6.04.9.11l5.08,1.3-4.24,5.47-28.28,36.48-1.85,2.38,1.65,2.52c.44.67.67,1.45.65,2.25-.42,26.26-11.3,50.82-21.83,74.57-9.32,21.02-18.12,40.88-20.38,61.91l-.54,5.05,5.06-.38c.96-.07,1.91-.11,2.84-.11,1.45,0,2.88.09,4.27.27,2.26.28,3.88,2.3,3.61,4.51-.25,1.98-1.98,3.48-4.03,3.48-.18,0-.36-.01-.55-.03-1.1-.14-2.24-.21-3.36-.21-1.36,0-2.74.1-4.11.31l-3.27.49-.31,3.29c-.18,1.95-1.77,3.45-3.77,3.58-.09,0-.18,0-.27,0-.33,0-.66-.04-.97-.11-.64-.15-1.24-.46-1.75-.88l-1.43-1.19-1.84.24c-.24.03-.52.07-.65.07l-5.07-.14.78,5.01c1.76,11.38,3.06,22.82,3.84,34l.68,9.61,6.61-7.01c7.06-7.48,14.46-14.84,21.99-21.86l1.41-1.32-.07-1.93c-.05-1.29.5-2.47,1.5-3.25,16.63-12.91,28.14-32.45,32.41-55.01,4.27-22.56.7-44.97-10.05-63.1-.55-.92-.7-1.99-.43-3.01.27-1.02.93-1.88,1.87-2.42.64-.36,1.33-.55,2.06-.55,1.49,0,2.89.79,3.64,2.05,4.96,8.36,8.57,17.61,10.73,27.49l1.77,8.07,5.51-6.16c8.57-9.59,15.38-21.13,19.68-33.37l.46-1.32-.41-1.33c-.47-1.51.02-3.13,1.24-4.14l1.08-.89.34-1.36c1.56-6.34,2.48-12.73,2.72-18.98.08-2.13,1.87-3.8,4.06-3.8.06,0,.13,0,.2,0,.27.01.59.07.96.18l6.49,1.84-1.18-6.64c-1.56-8.8-7.29-17-13.35-25.68-4.89-7.01-9.96-14.25-13.06-22.36l-2.45-6.39.07.02-.49-5.91c-.39-4.75-.07-9.79.99-15.4l.22-1.15-.41-1.1c-.53-1.42-.29-2.96.65-4.1.2-.25.4-.5.59-.76.12-.15.23-.31.36-.46l.54-.67.23-.82c.98-3.46,2.07-6.8,3.02-9.74.53-1.62,2.1-2.7,3.94-2.7h2.33l1.24-1.97c8.77-13.91,15.46-28.73,19.89-44.05.53-1.84,2.19-3.08,4.13-3.08.44,0,.88.06,1.31.18,1.48.43,2.61,1.57,3.03,3.05l1.8,6.41,5.04-4.35c2.74-2.37,5.28-5.03,7.54-7.89l1.33-1.68-.57-2.06c-.03-.12-.07-.23-.1-.33-.17-.95,0-1.91.51-2.73.56-.92,1.46-1.56,2.53-1.81.13-.03.26-.07.4-.11l1.86-.44.86-1.85c1.31-2.81,2.25-5.2,2.94-7.54.53-1.79,2.26-3.04,4.2-3.04.42,0,.85.06,1.26.18,1.26.37,2.02,1.2,2.44,1.84l2.58,3.91,3.62-2.96c2.51-2.06,4.92-4.48,7.15-7.2l1.28-1.56-.41-1.98c-4.06-19.42-11.8-38.49-22.38-55.14-.58-.91-.76-1.98-.52-3.01.24-1.03.87-1.91,1.79-2.47.65-.4,1.4-.61,2.17-.61,1.47,0,2.8.73,3.58,1.94,7.83,12.33,14.1,25.65,18.63,39.6l3.02,9.3,4.7-8.58c.82-1.49,1.51-2.59,2.25-3.57,2.86-3.8,8.14-7.86,14.37-7.86,1.59,0,3.17.28,4.7.82,1.06.38,1.91,1.14,2.38,2.14.45.95.5,2.02.15,3-.57,1.57-2.12,2.63-3.85,2.63-.49,0-.97-.08-1.44-.25l-.06-.02-.07-.02c-.48-.15-1-.23-1.54-.23-2.64,0-5.91,1.89-7.95,4.59-2.01,2.67-3.31,5.94-4.68,9.4-.57,1.44-1.22,3.07-1.9,4.59-5.94,13.23-17.35,24.05-31.3,29.68l-1.31.53-.73,1.22c-6.74,11.26-16.88,20.43-28.55,25.83-.3.14-.67.24-1.14.32l-2.31.38-.9,2.16c-6.28,15.1-14.56,29.27-24.61,42.13l-.56.72-.21.89c-2.09,8.69-2.44,15.63-1.1,21.83,1.99,9.23,7.75,17.49,13.86,26.23,3.66,5.24,7.81,11.19,10.8,17.4l3.69,7.67,3.88-7.58c2.8-5.47,5.47-9.73,8.39-13.41.06-.08.13-.15.2-.22.15-.17.3-.33.44-.51l1.6-1.95-.95-2.33c-10.85-26.53-12.27-56.02-4.01-83.04.51-1.68,2.08-2.81,3.91-2.81.42,0,.84.06,1.23.18,1.08.33,1.96,1.04,2.48,2.02.5.93.6,2,.3,3-1.16,3.79-2.15,7.86-2.94,12.1l-1.7,9.05,7.97-4.61c4.14-2.4,8.51-4.47,12.36-6.29,13.73-6.51,22.89-11.52,24.94-21.4.41-1.96,2.19-3.38,4.25-3.38.31,0,.62.03.95.1l.11.03c2.34.55,3.79,2.78,3.32,5.06-3.05,14.7-16.56,21.11-29.62,27.31-9.07,4.3-18.44,8.74-23.71,15.99l-.84,1.16.04,1.43c.31,11.69,2.34,23.21,6.05,34.26l1.99,5.94,4.76-4.08.36-.31c.83-.71,1.67-1.43,2.5-2.13,5.38-4.54,10.45-8.84,14.61-13.99,4.8-5.94,8.23-12.83,11.86-20.13,4.8-9.64,9.76-19.61,18.15-27.17,1.76-1.58,3.66-3.11,5.5-4.6,6.82-5.5,13.26-10.69,12.18-17.17-.17-1.03.07-2.07.69-2.92.64-.88,1.59-1.46,2.68-1.62.22-.03.44-.05.65-.05,2.03,0,3.81,1.48,4.13,3.43,1.82,10.98-7.51,18.5-15.01,24.54l-.19.15c-1.67,1.35-3.39,2.74-4.97,4.16-7.28,6.56-11.7,15.43-16.37,24.82l-.02.05c-3.65,7.34-7.43,14.92-12.76,21.51-4.63,5.73-10.23,10.46-15.67,15.06-2.74,2.32-5.33,4.51-7.82,6.83l-1.32,1.23-.02,1.81c-.02,1.53-.89,2.88-2.27,3.53-.41.19-.86.31-1.33.36l-1.83.19-1.11,1.47c-4.96,6.6-8.54,14.51-12.01,22.17-4.99,11.04-10.15,22.45-19.39,30.56l-.91.79-.35,1.15c-3.87,12.73-10.26,24.98-18.48,35.42l-8.86,11.26,13.55-4.65c3.25-1.11,6.44-2.09,9.48-2.91.36-.1.73-.14,1.09-.14,1.88,0,3.54,1.24,4.04,3.01.29,1.01.16,2.07-.36,2.98-.53.94-1.41,1.61-2.47,1.89-10.28,2.75-20.37,6.81-29.99,12.08l-2.02,1.11-.17,2.29c-.75,10.25-2.96,20.28-6.59,29.82l-5.11,13.45,11.57-8.54c3.32-2.45,6.74-4.94,9.76-7.14,20.48-14.93,39.83-29.03,55.76-47.75,17.69-20.79,29.92-46.18,41.76-70.75,21.63-44.92,44-91.37,57.85-140.32l.53-1.86-1.06-1.61c-.1-.15-.2-.29-.31-.44h0s-17.96-33.66-17.96-33.66c-.54-1.01-.65-2.15-.31-3.22.34-1.08,1.09-1.97,2.12-2.5.63-.33,1.31-.49,2.03-.49,1.68,0,3.2.9,3.97,2.36l9.36,17.54,5.41,10.14,2.45-11.23c1.24-5.69,2.46-11.59,3.72-18.05l.56-2.87-2.48-1.54c-.49-.3-.9-.67-1.22-1.1-.95-1.26-1.1-2.94-.4-4.38l1.61-3.28-3.02-2.07c-13.51-9.27-24.96-20.66-34.03-33.86-.61-.89-.84-1.95-.63-2.99.2-1.04.8-1.93,1.69-2.53.68-.45,1.48-.69,2.3-.69,1.4,0,2.71.68,3.49,1.82,8.23,11.97,18.52,22.35,30.58,30.85l5.26,3.7,1.31-6.29c2.4-11.52,4.68-20.85,7.16-29.37l1.51-5.2-5.41-.2c-.08,0-.17,0-.25,0-.07,0-.14,0-.22,0-5.05-.56-10.11-1.44-15.03-2.61-15.83-3.76-30.53-10.45-43.69-19.89-.9-.65-1.49-1.59-1.66-2.66-.16-1.03.09-2.07.71-2.92.77-1.05,1.98-1.65,3.32-1.65.89,0,1.75.27,2.47.79,16.14,11.57,35.11,18.82,54.86,20.97.64.07,1.27.31,1.87.72l4.47,3.01,1.86-5.06c7.15-19.43,16.39-34.73,28.26-46.79.77-.78,1.82-1.22,2.94-1.22M342.81,448.01l8.86-16.45c11.26-20.9,21.18-39.82,28.52-59.65,8.56-23.12,12.04-43.85,10.64-63.4-.07-1.04.26-2.05.96-2.84.72-.82,1.73-1.31,2.84-1.38.09,0,.19,0,.28,0,2.18,0,4.01,1.67,4.16,3.79.34,4.78.39,9.75.14,15.21l-.36,8.03,6.82-4.26c2.69-1.68,5.5-4.16,8.6-7.61l3.62-4.02-4.78-2.54c-.54-.29-1.49-.96-1.78-2.27-4.38-19.42-8.46-39.97-6.17-59.02l-8.33-1.37c-4.74,22.6-13.66,55.54-36.39,80.66l-.82.91-.21,1.2-4.95,28.33-.12.67.1.68,1.66,11.12c.28,1.89-.79,3.73-2.61,4.48l-2.16.89-.4,2.3-3.64,20.85c-.48,2.74-.99,5.66-1.47,8.65l-.37,2.3,1.75,1.54c1.63,1.44,1.97,3.75.79,5.5-.4.6-.96,1.08-1.65,1.42l-2.13,1.06-.2,2.37c-.13,1.56-.23,2.93-.29,4.18l-.92,18.67M325.7,593.99l4.82-7.28c3.22-4.87,6.41-9.83,9.4-14.5,2.64-4.12,5.63-8.8,8.57-13.27,5.02-7.62,10.45-15.37,16.14-23.04l3.37-4.54-5.31-1.95c-1.35-.5-2.31-1.51-2.64-2.78-.46-1.82.45-3.71,2.16-4.52l2.84-1.33-.45-3.1c-.38-2.62-1.94-6.43-4.56-9.03-10.86-10.8-13.54-19.55-7.95-26.03.77-.89,1.91-1.41,3.12-1.41,1,0,1.97.35,2.73.99,1.69,1.42,1.95,3.86.58,5.54l-1.23,1.51.35,1.92c.55,2.96,3.4,7.08,8.26,11.91,3.05,3.03,5.48,7.41,6.51,11.71l1.97,8.28,5.41-6.57c1.69-2.05,3.24-3.91,4.76-5.7l1.15-1.35-.16-1.76c-.04-.44-.04-.78.01-1.05.11-.58.37-1.14.79-1.68l1.42-1.81-.75-2.17c-.14-.41-.22-.77-.23-1.11-1.11-25.33-4.67-50.7-10.56-75.4-.24-1.02-.07-2.08.48-2.97.57-.91,1.47-1.55,2.55-1.79.31-.07.63-.11.94-.11,1.92,0,3.63,1.33,4.07,3.16,1.21,5.07,2.36,10.4,3.51,16.3l1.18,6.03,5.21-3.26c.18-.11.35-.23.53-.35.14-.09.27-.18.41-.27l2-1.16.1-2.31c1.03-24.84,11.45-48.35,21.52-71.08,7.93-17.9,15.43-34.81,19.02-52.56l3.59-17.7-11.07,14.28-4.08,5.27c-5.6,7.23-14.07,18.16-25.32,20.33l-2.89.56-.47,2.91c-5.67,34.78-23.31,67.49-40.36,99.11-2.58,4.79-4.74,8.78-6.92,12.9-.55,1.03-1.07,2.04-1.59,3.04l-.57,1.1-.6,1.16.16,1.3c.2,1.67-.62,3.28-2.09,4.12l-1.13.64-.57,1.17c-17.21,35.07-25.83,65.77-25.62,91.26v.73s.25.68.25.68c.28.76.3,1.59.07,2.4l-.2.69.04.71c.49,8.78,2,16.94,4.63,24.94l2.72,8.3M762.15,447.64c-.11,0-.22,0-.34-.01-.24-.02-.48-.05-.73-.11-2.11-.5-3.53-2.39-3.39-4.49.51-7.7-2.63-15.83-8.21-21.28-.07-.08-.15-.17-.24-.26l-1.13-1.14-1.6-.11c-6.51-.43-12.82-2.13-18.91-3.78-5.67-1.53-11.54-3.12-17.2-3.46l-1.32-.08-1.13.69-7.22,4.38-1.12.68-.54,1.2c-.54,1.21-1.66,2.07-2.99,2.31-.21.04-.44.06-.69.06-.09,0-.17,0-.25,0l-1.29-.06-1.1.67-25.66,15.57-1.85,1.12-.17,2.15c-.11,1.4-.24,2.88-.42,4.34-.24,1.98-1.97,3.48-4.03,3.48-.18,0-.36-.01-.53-.03-.16-.02-.32-.05-.47-.09-.99-.23-1.68-.8-2.08-1.24l-2.34-2.52-2.94,1.79-23.84,14.47-10.36,6.29,12.03,1.51c11.79,1.48,23.62,4.57,35.06,7.56l.23.06c7.2,1.87,14,3.64,20.84,5.07,4.17.87,8.66,1.61,13.71,2.27l3.37.44,1.15-3.2c.18-.51.4-.91.65-1.22,10.55-13.01,19.48-27.29,26.54-42.46.7-1.51,2.25-2.48,3.95-2.48.65,0,1.28.14,1.89.42,1.09.5,1.91,1.38,2.31,2.48.39,1.05.34,2.19-.13,3.2-6.14,13.2-13.73,25.87-22.56,37.66l-4.91,6.56,8.19.19c1.58.04,3.18.06,4.76.06,32.72,0,66.51-8.04,97.74-23.25,2.09-1.02,4.14-2.07,6.04-3.06l2.71-1.41-.49-3.01c-2.69-16.64-2.82-33.7-.38-50.7l.53-3.72-3.64-.96c-.12-.03-.25-.06-.38-.08-2.73-.82-5.62-1.23-8.57-1.23-10.2,0-20.55,4.88-31.52,10.05l-.06.03c-6.89,3.25-14.7,6.93-22.55,9.16l-5.1,1.44,2.55,4.65c3.35,6.11,4.89,12.85,4.45,19.5-.15,2.21-2.04,3.95-4.32,3.95M652.96,548.93c-.54,0-1.08-.11-1.6-.32-6.26-2.55-12.76-4.86-19.87-7.06l-1.31-.41-1.3.44c-23.46,7.95-52.65,17.85-82.03,21.24-7.11.82-14.22,1.23-21.14,1.23-12.33,0-24.13-1.32-35.05-3.91-4.77-1.13-9.53-2.57-14.15-4.26l-1.89-.69-1.73,1.03c-13.23,7.87-29.02,16.87-45.86,23.96l-11.83,4.98,12.48,3.02c19,4.6,38.44,6.93,57.77,6.93,12.82,0,25.6-1.04,37.98-3.09,7.35-1.22,14.82-2.81,22.08-4.37,11.49-2.46,23.36-4.99,35.39-6.16,4.91-.48,9.96-.72,14.99-.72,8.85,0,17.95.74,27.05,2.21l2.79.45,1.48-2.41c.32-.52.9-1.22,1.89-1.62l47.54-19.3,12.45-5.05,25.07-10.17c11.32-4.59,23.03-9.34,35.65-11.07,3.51-.48,7.21-.73,11-.73,2.22,0,4.52.08,6.84.25l13.59.96-10.66-8.48c-11.65-9.27-22.79-18.99-33.1-28.9-.2-.19-.4-.45-.62-.81l-1.3-2.08-2.45.09c-2.63.1-5.29.15-7.9.15-12.69,0-25.24-1.16-37.31-3.45l-2.66-.51-1.57,2.21c-10.7,15.09-10.63,36.9.16,51.88.96,1.33,1.01,3.08.12,4.44l-1.51,2.33-2.84-.6c-.09-.02-.17-.03-.25-.05-.92-.26-1.71-.81-2.27-1.58-11.48-15.93-12.88-38.37-3.48-55.86l2.56-4.77-5.25-1.33c-2.62-.66-5.25-1.33-7.82-2-15.39-4.02-31.3-8.18-46.11-8.18-5.66,0-10.81.58-15.73,1.77l-.64.15-.56.34-50.72,30.78-10.31,6.26,11.96,1.55c29.65,3.83,54.38,7.84,78.64,14.97l.47.14.49.03c.61.03,1.23.22,1.82.55l.38.21.42.13c7.39,2.27,14.53,4.81,21.22,7.53,1.04.42,1.85,1.21,2.27,2.23.41.97.41,2.04.01,3-.62,1.5-2.11,2.48-3.79,2.48M836.28,554.59l-5.26-10.46c-3.66-7.27-6.08-13.54-7.63-19.73-.5-2.01-.93-4.15-1.26-6.35l-.36-2.35-2.19-.92c-.66-.28-1.22-.7-1.66-1.26-6.79-8.6-12.51-18.18-17.01-28.47l-1.54-3.52-3.65,1.2c-13.65,4.48-27.52,7.7-41.21,9.56l-8.96,1.22,6.69,6.09c12.17,11.08,24.83,21.47,37.64,30.88,1.13.83,1.74,2.15,1.64,3.54l-.25,3.41,3.29.96c4.19,1.22,8.51,2.64,13.2,4.34,5.44,1.97,11.09,4.25,17.79,7.18l10.73,4.68M525.69,556.03c6.57,0,13.33-.39,20.07-1.17,16.36-1.89,33.62-5.85,55.97-12.85l15.5-4.85-15.9-3.32c-21.67-4.52-43.84-7.3-65.27-9.99-.16-.02-.32-.05-.48-.09-.65-.15-1.25-.48-1.8-.96l-2.33-2.06-2.66,1.61-36.89,22.39-8.86,5.38,10.1,2.35c10.15,2.36,21.1,3.55,32.56,3.55M295.71,629.26l5.05-4.89c6.11-5.91,12.18-12.98,18.58-21.61l2.14-2.89-2.51-2.58c-.43-.44-.72-.85-.88-1.24-1.34-3.23-2.55-6.66-3.6-10.21l-1.69-5.71-4.83,3.47c-8.26,5.94-18.58,9.25-29.05,9.32l-12.02.08,9.43,7.46c1.69,1.33,3.15,2.52,4.47,3.62,6.31,5.26,11.15,12.14,12.96,18.41l1.95,6.75M548.43,628.02l.91-5.46c.13-.79.5-1.51,1.06-2.08,10.74-10.98,26.19-17.28,42.39-17.28,9.51,0,18.82,2.22,26.95,6.43.99.51,1.72,1.37,2.05,2.42.31,1,.22,2.06-.27,2.98-.7,1.32-2.09,2.14-3.63,2.14-.68,0-1.34-.16-1.95-.48-6.84-3.53-14.75-5.4-22.88-5.4-13.2,0-25.98,4.84-35.07,13.29l-5.47,5.08,7.16,2.08c14.96,4.34,31.3,6.03,45.71,7.53l46.97,4.87,5.45.56-.84-5.41c-1.81-11.69-1.93-23.47-.35-35.01l.47-3.4-3.24-1.15c-19.41-6.89-38.83-10.39-57.71-10.39-4.78,0-9.58.23-14.25.68-11.51,1.12-22.61,3.49-34.4,6.01-7.3,1.56-14.85,3.18-22.47,4.44-1.41.23-2.82.42-4.31.62-.58.08-1.17.16-1.75.24l-9.34,1.3,7.18,6.11c8.03,6.83,16.98,12.54,26.61,16.98l5.03,2.32M819.02,733.29l-.87-11.87c-.59-8-.67-16.19-.24-24.34l.21-3.97-3.95-.45c-1.65-.19-3.23-.46-4.69-.81-4.67-1.11-9.19-3.08-13.08-5.71-.92-.62-1.54-1.55-1.74-2.62-.19-1.03.03-2.07.62-2.94.75-1.09,2.02-1.74,3.38-1.74.85,0,1.68.25,2.38.73,3.98,2.69,8.7,4.44,13.66,5.05l4.14.51.56-4.13c2.08-15.27,5.99-30.28,11.61-44.61l1.76-4.48-4.67-1.16-1.36-.33c-.6-.15-1.21-.3-1.78-.44l-48.78-12.27-6.73-1.69,1.59,6.76c2.95,12.56,9.78,24.15,19.24,32.62.82.73,1.3,1.73,1.35,2.8.05,1.05-.31,2.05-1.03,2.82-.78.85-1.86,1.32-3.04,1.32-.33,0-.67-.04-.99-.12-.69-.16-1.31-.49-1.84-.96-12.63-11.31-21.04-27.49-23.07-44.4l-.35-2.88-2.82-.71-26.73-6.72c-.1-.03-.36-.13-.59-.23l-1.89-.79-1.79.99c-4.67,2.58-9.7,4.68-14.93,6.23l-8.37,2.48,7.14,5.03c13.24,9.32,25.77,20.08,37.23,31.98,11.5,11.94,22.21,25.04,32.57,37.72,10.01,12.25,19.47,23.82,29.71,34.69l8.16,8.66M779.99,190.41c.26,0,.52.02.78.07,2.4.48,4.03,2.71,3.63,5-1.78,10.06-7.19,19.74-15.66,27.99l-4.97,4.84,6.57,2.2,19.98,6.68c1.14.38,2.05,1.17,2.58,2.23.5,1.01.58,2.15.23,3.21-.58,1.73-2.24,2.9-4.12,2.9-.35,0-.7-.04-1.04-.12-.14-.03-.26-.07-.4-.11l-31.38-10.49-1.76-.59-1.62.89c-11.53,6.35-23.8,9.89-35.33,12.77l-2.66.66-.48,2.69c-1.07,5.99-2.36,11.82-3.96,17.83-.44,1.64-1.84,2.86-3.57,3.11-10.26,1.46-20.14,5.41-28.56,11.42l-1.39.99-.31,1.68c-1.66,8.95-5.25,17.55-10.39,24.87l-3.49,4.97,5.87,1.55c3.04.8,5.52,1.56,7.8,2.37,1.13.41,2.03,1.22,2.53,2.28.48,1.02.53,2.16.16,3.21-.61,1.68-2.25,2.81-4.1,2.81-.52,0-1.04-.09-1.53-.27-6.29-2.25-12.91-3.77-19.68-4.53l-.32-.04h-.32c-.1.02-.2.02-.31.02-.31,0-.57-.02-.81-.06l-.16-.04-.33-.08-.34-.03c-2.35-.19-4.74-.29-7.09-.29-.15,0-.3,0-.45,0l10.43-10.86c7.31-7.61,12.31-17.7,14.09-28.41l.09-.52-.04-.52c-.05-.56.03-1.13.23-1.7l.16-.47.05-.5c.68-7.07-.01-13.93-2.05-20.38-1.13-3.56-2.59-7.18-4.13-11.01-5.25-13.03-11.2-27.81-2.37-40.08.81-1.12,2.14-1.8,3.56-1.8.93,0,1.83.29,2.6.82.97.68,1.61,1.68,1.8,2.82.19,1.1-.07,2.21-.72,3.12-5.73,7.95-2.4,17.86,3.32,32.08,1.54,3.82,3.13,7.77,4.35,11.62.98,3.11,1.71,6.49,2.16,10.07l.74,5.88,5.31-2.61c5.38-2.65,11.03-4.63,16.79-5.89l2.58-.57.62-2.57c.71-2.95,1.35-5.88,1.95-8.96l.42-2.16-1.53-1.58c-.56-.58-.94-1.23-1.11-1.92-.46-1.83.4-3.75,2.1-4.68l1.95-1.06.24-2.2c1.45-13.49.8-25.39-1.99-36.39-.28-1.09-.11-2.22.47-3.17.59-.99,1.55-1.68,2.7-1.95.35-.08.7-.12,1.05-.12,2.02,0,3.85,1.39,4.33,3.32,2.58,10.16,3.47,20.91,2.74,32.85l-.36,5.9,5.7-1.57c9.09-2.5,16.23-5.06,22.47-8.06l1.67-.8.54-1.77c.03-.11.06-.2.08-.29.63-1.62,2.22-2.69,4.02-2.69.32,0,.63.03.95.1l1.8.39,1.51-1.06c11.46-8.03,18.86-18.58,20.82-29.72.36-2.03,2.15-3.5,4.27-3.5M774.49,261.78c1.86,0,3.54,1.14,4.19,2.84l19.65,51.53c.07.17.13.45.17.69l.69,3.46-3.32,1.26c-.09.03-.16.06-.24.1-.45.14-.91.22-1.37.22-.35,0-.7-.04-1.04-.12-1.45-.34-2.63-1.36-3.14-2.72l-19.65-51.53c-.4-1.06-.37-2.2.1-3.22.47-1.04,1.34-1.83,2.43-2.23.5-.18,1.01-.27,1.53-.27M755.52,301.23c2.17,0,4.06,1.58,4.4,3.68,2.26,13.99,9.1,27.22,19.27,37.25.63.62,1.05,1.41,1.21,2.28l1,5.41-5.65-.5c-.14-.01-.28-.02-.42-.03-.1,0-.19-.01-.29-.02-.78-.19-1.5-.6-2.07-1.16-11.47-11.33-19.19-26.25-21.74-42.02-.18-1.11.09-2.21.75-3.12.68-.93,1.7-1.54,2.87-1.72.23-.03.45-.05.68-.05M691.89,2.11c-2.17,0-4.33.83-5.96,2.48-13.63,13.85-22.64,30.43-29.21,48.3-1.1-.74-2.37-1.27-3.78-1.42-19.03-2.08-37.31-9.07-52.85-20.21-1.49-1.07-3.22-1.59-4.93-1.59-2.58,0-5.11,1.17-6.73,3.38-2.7,3.67-1.85,8.82,1.9,11.51,13.58,9.73,28.97,16.71,45.18,20.56,5.16,1.23,10.41,2.14,15.71,2.72.07,0,.14,0,.2,0,.1,0,.21,0,.31,0,.03,0,.06,0,.09,0-2.83,9.71-5.15,19.67-7.24,29.68-11.52-8.11-21.59-18.23-29.53-29.79-1.63-2.37-4.28-3.65-6.97-3.65-1.6,0-3.21.45-4.64,1.4-3.81,2.54-4.8,7.65-2.2,11.43,9.38,13.65,21.4,25.53,35.13,34.95-1.35,2.75-1.18,6.13.81,8.78.67.89,1.48,1.6,2.37,2.15-1.18,6.02-2.41,12.02-3.7,17.97l-9.36-17.54c-1.56-2.92-4.58-4.59-7.7-4.59-1.34,0-2.69.31-3.96.96-4.22,2.17-5.83,7.3-3.6,11.47l18.03,33.78c.13.24.3.43.45.66-13.74,48.55-35.98,94.77-57.59,139.64-11.72,24.32-23.83,49.46-41.17,69.85-15.6,18.33-34.75,32.29-55.03,47.07-3.22,2.35-6.5,4.74-9.78,7.16,3.78-9.93,6.09-20.42,6.86-31.02,9.17-5.02,18.9-9,29.05-11.71,4.44-1.19,7.05-5.71,5.81-10.1-1.04-3.67-4.43-6.09-8.11-6.09-.72,0-1.45.09-2.18.29-3.3.88-6.55,1.89-9.77,2.99,8.61-10.94,15.16-23.51,19.2-36.8,9.92-8.7,15.27-20.52,20.45-31.99,3.54-7.82,6.91-15.22,11.53-21.37.91-.09,1.81-.33,2.68-.74,2.96-1.38,4.66-4.27,4.7-7.3,2.42-2.25,5.01-4.44,7.68-6.7,5.58-4.72,11.34-9.59,16.23-15.64,5.62-6.96,9.51-14.78,13.27-22.33,4.49-9.03,8.74-17.56,15.42-23.57,1.55-1.4,3.26-2.77,4.98-4.16,7.91-6.38,18.75-15.11,16.53-28.52-.67-4.07-4.26-6.97-8.3-6.97-.43,0-.86.03-1.29.1-4.55.7-7.64,4.92-6.9,9.41.62,3.76-4.03,7.84-10.67,13.19-1.89,1.53-3.85,3.1-5.67,4.74-8.99,8.1-14.13,18.43-19.11,28.42-3.53,7.09-6.86,13.78-11.37,19.36-3.9,4.83-8.83,9-14.05,13.42-.95.81-1.91,1.63-2.87,2.45-3.57-10.65-5.54-21.83-5.83-33.03,4.58-6.3,13.08-10.38,22.1-14.66,13.35-6.33,28.48-13.5,31.95-30.27.93-4.52-1.95-8.95-6.48-10.03-.08-.02-.16-.04-.24-.06-.6-.12-1.2-.19-1.79-.19-3.99,0-7.56,2.75-8.39,6.75-1.66,7.99-9.64,12.3-22.61,18.44-4.14,1.96-8.48,4.03-12.67,6.45.74-3.93,1.66-7.82,2.83-11.65,1.33-4.35-1.17-8.96-5.59-10.3-.82-.24-1.65-.36-2.46-.36-3.57,0-6.86,2.26-7.95,5.8-8.53,27.9-6.95,58.75,4.14,85.88-.22.27-.47.51-.68.79-3.51,4.42-6.33,9.21-8.84,14.11-3.09-6.44-7.23-12.39-11.14-17.99-5.85-8.38-11.38-16.3-13.19-24.7-1.38-6.39-.54-13.23,1.08-19.95,10.24-13.11,18.77-27.71,25.18-43.11.75-.12,1.5-.32,2.22-.65,12.64-5.84,23.3-15.64,30.4-27.49,14.71-5.94,27.14-17.57,33.57-31.87.7-1.56,1.34-3.16,1.97-4.76,1.27-3.19,2.46-6.21,4.13-8.42,1.48-1.96,3.62-2.91,4.57-2.91.11,0,.2.01.27.03.94.33,1.9.49,2.84.49,3.42,0,6.62-2.07,7.83-5.42,1.54-4.28-.74-9-5.08-10.55-2.06-.73-4.12-1.06-6.12-1.06-7.24,0-13.81,4.32-17.74,9.54-1,1.32-1.82,2.7-2.58,4.08-4.61-14.2-10.97-27.79-19.08-40.56-1.6-2.51-4.35-3.9-7.14-3.9-1.5,0-3.02.4-4.38,1.23-3.9,2.4-5.08,7.47-2.62,11.34,10.38,16.34,17.86,34.87,21.81,53.75-1.96,2.4-4.14,4.64-6.55,6.61-1.09-1.65-2.72-2.96-4.78-3.56-.81-.24-1.64-.35-2.45-.35-3.7,0-7.15,2.38-8.25,6.07-.71,2.39-1.66,4.69-2.71,6.94-.09.02-.17.06-.25.08-4.48,1.05-7.23,5.49-6.13,9.91.02.07.06.13.08.2-2.09,2.65-4.43,5.1-6.99,7.31-.78-2.77-2.92-5.11-5.93-5.97-.83-.24-1.66-.35-2.47-.35-3.76,0-7.11,2.42-8.19,6.13-4.35,15.05-10.98,29.61-19.41,42.97h-.02c-3.52,0-6.8,2.14-7.93,5.62-1.01,3.11-2.09,6.43-3.07,9.89-.31.39-.61.8-.92,1.19-1.96,2.4-2.34,5.53-1.34,8.25-1,5.33-1.51,10.89-1.04,16.53-.64-.16-1.29-.25-1.95-.25-2.31,0-4.59,1.02-6.09,2.96l-46.83,60.41c-5.5-25.1-9.08-49.13-.13-68.92,1.87-.41,3.79-.62,5.71-.62,5.07,0,10.14,1.43,14.33,4.24,1.33.89,2.85,1.32,4.35,1.32,2.46,0,4.88-1.16,6.36-3.32,2.38-3.47,1.44-8.21-2.1-10.58-5.44-3.65-11.82-5.86-18.37-6.59,3.38-3.92,7.13-7.73,11-11.64,4.53-4.58,9.12-9.24,13.28-14.3,2.72.44,5.48.67,8.22.67,2.08,0,4.15-.13,6.19-.4,4.57-.6,7.75-4.74,7.11-9.25-.59-4.14-4.19-7.15-8.32-7.15-.37,0-.74.02-1.11.07-.62.08-1.25.13-1.87.17.31-.67.66-1.31.95-2,3.06-7.27,4.48-14.84,5.73-22.23,23.01-2.29,43.92-16.61,53.88-37.22,2.05-4.23.21-9.32-4.09-11.36-1.21-.57-2.49-.85-3.75-.85-3.2,0-6.28,1.77-7.75,4.8-6.5,13.44-19.82,23.53-34.59,26.81,1.05-3.43,2.38-6.67,4.22-9.61,2.24-3.56,1.12-8.26-2.51-10.49-1.28-.79-2.71-1.16-4.11-1.16-2.57,0-5.07,1.26-6.51,3.57-1.44,2.29-2.62,4.64-3.64,7.03-.78-3.94-1.68-7.86-2.71-11.76,12.96-6.88,23.95-17.25,31.88-29.57l42.26,15.83c.34.13.68.23,1.03.31.65.15,1.3.23,1.95.23,3.37,0,6.52-2.02,7.77-5.31,1.61-4.25-.59-9.01-4.91-10.63l-40.51-15.17c2.04-5.06,3.64-10.28,4.67-15.61,1.55-.08,3.1-.54,4.47-1.49,8.01-5.57,14.81-12.95,19.67-21.34,2.35-4.07.9-9.27-3.24-11.62-1.37-.77-2.85-1.14-4.32-1.14-2.98,0-5.87,1.53-7.45,4.26-2.22,3.84-5.04,7.34-8.22,10.48-1.17-3.4-4.4-5.84-8.18-5.84-.12,0-.24,0-.36,0-4.76.19-8.44,4.15-8.21,8.84.48,10.12-1.63,20.22-5.74,29.48-2.08.83-3.82,2.46-4.66,4.69-.58,1.53-.65,3.12-.32,4.61-5.76,9.05-13.55,16.82-22.75,22.33-1.95-5.38-4.12-10.68-6.54-15.87l14.19-44.54c1.42-4.47-1.11-9.26-5.65-10.7-.87-.27-1.75-.39-2.61-.39-3.66,0-7.05,2.27-8.2,5.89l-10.84,34.03c-1.11.05-2.21.32-3.25.87-3.74,1.99-5.12,6.6-3.08,10.3.8,1.46,1.52,2.96,2.28,4.44.27,1.81,1.14,3.48,2.45,4.78,3.04,6.36,5.68,12.91,7.95,19.59-1.13,2.14-1.36,4.73-.35,7.15.77,1.83,2.13,3.24,3.75,4.15,3.29,12.25,5.33,24.82,5.94,37.44.13,2.65,1.62,4.92,3.77,6.2-.78,3.45-1.73,6.76-3.05,9.88-.74,1.76-1.63,3.45-2.59,5.11-.17-.08-.35-.14-.52-.22-1.16-.54-2.38-.8-3.59-.8-3.12,0-6.11,1.73-7.52,4.69-1.55,3.26-.71,7.02,1.79,9.41-2.8,3.09-5.8,6.13-8.87,9.24-7.6,7.69-15.43,15.65-21.11,25.41-3.21,1.55-4.87,5.03-4.13,8.39-1.11,2.7-2.09,5.42-2.86,8.19,1.61-8.94,2.95-17.69,4.21-26,.7-4.64-2.51-8.96-7.26-9.72-.45-.07-.9-.1-1.34-.1-4.18,0-7.83,3-8.46,7.2-.3,1.99-.61,4.01-.92,6.05l-1.06-15.78c-.46-6.88-.98-14.69-3.66-22.22-2.64-7.44-7.12-13.85-11.07-19.51l-6.07-8.67c.46-1.18.69-2.47.56-3.82l-5.39-56.15c-.42-4.43-4.21-7.76-8.65-7.76-.25,0-.5.01-.76.03-4.74.41-8.22,4.54-7.78,9.22l3.01,31.34-1.24-1.77c-1.69-2.41-4.4-3.71-7.15-3.71-1.68,0-3.37.48-4.85,1.49-3.91,2.65-4.89,7.95-2.17,11.82l26.3,37.58c3.65,5.22,7.1,10.15,8.97,15.43,1.9,5.33,2.32,11.62,2.72,17.7l4.55,68c.1,1.5.6,2.87,1.37,4.06-3.31,10.23-7.45,20.15-12.73,29.38-1.11-.9-2.44-1.58-3.95-1.86-.51-.09-1.02-.13-1.53-.13-4.02,0-7.56,2.79-8.37,6.78l-14.01-93.66c-.64-4.25-4.35-7.33-8.59-7.33-.4,0-.8.03-1.21.08-4.71.65-7.97,4.95-7.28,9.61l21.68,144.97-6.69,38.32c-.05.31-.11.63-.16.94-11.6-8.02-22.73-16.71-31.59-27.25-2.68-3.19-5.05-6.48-7.12-9.83,7.02-33.77,14.63-67.89,22.65-101.48,1.09-4.57-1.79-9.17-6.42-10.27,0,0,0,0-.01,0-.68-.16-1.36-.24-2.03-.24-3.89,0-7.4,2.61-8.33,6.5-5.15,21.53-10.1,43.28-14.86,65.03.58-4.42-2.37-8.57-6.92-9.48-.56-.11-1.12-.16-1.67-.16-4.04,0-7.63,2.81-8.41,6.87-2.19,11.39-.98,23.51,3.26,35.4-7.44-2.62-14.6-5.95-21.38-9.94.3-.79.51-1.62.56-2.51,1.26-26.08,11.16-50.38,21.64-76.11,8.39-20.59,17.06-41.88,21.02-64.38l.41-2.43c.82-4.86,1.59-9.45,3.56-12.94,1.44-2.55,4.05-4.49,5.94-4.49.16,0,.31.01.46.04.55.1,1.09.15,1.63.15,4.06,0,7.65-2.84,8.42-6.91.86-4.61-2.18-9.03-6.93-9.96-1.29-.24-2.56-.36-3.8-.36-4.46,0-8.57,1.48-12.07,3.79-3.5-36.14-18.56-70.97-43.16-98.44-1.72-1.92-4.11-2.9-6.51-2.9-2.02,0-4.04.69-5.67,2.11-3.56,3.1-3.88,8.47-.72,12.01,13.25,14.8,23.4,31.97,30.13,50.35-5.02-2.02-10.19-3.57-15.09-5.03-12.44-3.71-23.19-6.91-27.07-15.52-1.44-3.19-4.62-5.09-7.94-5.09-1.16,0-2.33.23-3.46.72-4.35,1.89-6.3,6.91-4.35,11.21,7.13,15.78,23.5,20.66,37.94,24.96,10.67,3.18,20.76,6.19,26.56,12.79.05.06.11.1.16.15,2.43,12.66,3.28,25.62,2.43,38.56-.14,2.16.56,4.19,1.81,5.78-1.36,7.24-3.23,14.44-5.49,21.59-5.9-3.95-12.16-7.12-18.3-10.21-3.28-1.65-6.37-3.21-9.41-4.88-13.05-7.18-20.71-15.15-22.78-23.69-.95-3.93-4.52-6.59-8.44-6.59-.64,0-1.3.07-1.95.22-4.64,1.06-7.5,5.62-6.39,10.2,3.24,13.41,13.75,25.09,31.23,34.71,3.32,1.82,6.7,3.53,9.97,5.17,7.35,3.7,14.33,7.24,20.17,11.84-2.68,7.07-5.52,14.09-8.34,21.01-1.72,4.23-3.46,8.49-5.16,12.78-14.08-11.01-26.06-24.76-34.9-40.16-1.6-2.79-4.54-4.36-7.57-4.36-1.43,0-2.87.35-4.2,1.09-4.14,2.29-5.59,7.48-3.23,11.58,10.85,18.88,25.91,35.53,43.64,48.41-5.08,14.38-9.19,29.16-10.81,44.52-2.05-1.69-4.04-3.45-5.97-5.28-1.69-1.6-3.85-2.39-6.01-2.39s-4.51.87-6.19,2.59c-3.29,3.38-3.16,8.76.29,12.03,17.12,16.21,38.29,27.89,61.23,33.78.05.01.11.03.16.04.64.15,1.28.22,1.91.22.69,0,1.36-.08,2.01-.23,2.01,3,4.2,5.95,6.61,8.82,12.05,14.35,27,25.13,42.03,35.13-1.34,12-1.48,24.79,2.08,37.11-5.34,10.65-10.68,22.35-15.22,34.7-1.02-1.93-2.16-3.8-3.41-5.6.28-.9.45-1.86.4-2.86l-2.38-52.82c-.21-4.59-4.07-8.19-8.68-8.19-.11,0-.21,0-.32,0-4.76.17-8.45,4.12-8.23,8.82l1.97,43.78c-1.26.46-2.43,1.2-3.37,2.26-3.01,3.43-2.61,8.63.89,11.62,8.76,7.5,13.66,19.66,12.49,30.99-.19,1.85.28,3.61,1.19,5.1-.6,3.06-1.12,6.14-1.56,9.24-5.89-7.39-12.22-14.04-19.44-19.37-10.67-23.4-10.44-51.36.91-74.34,2.01-4.08.29-9.02-3.86-11.03-1.19-.58-2.46-.85-3.7-.85-3.08,0-6.03,1.68-7.47,4.59-1.73,3.5-3.22,7.09-4.52,10.76-5.38-7.42-12.52-13.72-19.53-19.89-6.77-5.95-13.16-11.58-17.75-17.97-7.28-10.13-10.28-22.79-13.45-36.19-1.45-6.13-2.96-12.46-4.91-18.65-4.37-13.82-10.8-23.87-17.97-30.97,4.45-19.32,8.43-38.87,11.79-58.32.8-4.62-2.34-9.03-7.06-9.86-.51-.09-1.02-.13-1.52-.13-4.1,0-7.72,2.9-8.44,7.02-1.36,7.88-2.85,15.77-4.41,23.67-18.27-7.82-32.54-24.53-36.69-43.81-.87-4.03-4.48-6.8-8.49-6.8-.57,0-1.16.06-1.74.17-4.66.94-7.64,5.44-6.65,10.04,5.54,25.76,25.23,47.91,50.11,57.28-.73,3.4-1.44,6.8-2.2,10.19-5.55-2.41-11.04-3.49-15.98-3.49-.28,0-.56,0-.84.01-4.76.12-8.5,4.02-8.35,8.72.15,4.62,4,8.3,8.66,8.3.08,0,.16,0,.24,0,.17,0,.35,0,.52,0,4.21,0,8.16,1.28,11.81,3.44-.09.36-.16.72-.25,1.07-1.11,4.56,1.76,9.17,6.39,10.29.01,0,.03,0,.04,0,.66.16,1.33.23,1.98.23,1.17,0,2.31-.24,3.35-.67,4,5.51,7.16,12.04,9.23,18.58,1.77,5.6,3.13,11.36,4.58,17.45,3.42,14.42,6.95,29.32,16.2,42.2,5.73,7.98,13.18,14.53,20.38,20.86,11.3,9.94,21.06,18.52,22.49,30.27.26,2.15,1.32,4,2.84,5.34-.62,10.72.38,21.55,3.03,31.98-7.91-2.22-15.91-2.73-23.78-2.88-1.47-35.36-29.44-68.07-64.65-75.08-.56-.11-1.12-.17-1.68-.17-3.89,0-7.35,2.69-8.13,6.6-.87,4.36,1.93,8.61,6.29,9.65.1.02.2.05.3.07,27.14,5.46,49.47,31.35,51.08,58.61-7.67-.38-14.84-1.43-21.01-4.7-3.68-1.96-7.14-4.78-10.8-7.77-1.01-.83-2.02-1.66-3.05-2.47-9.75-7.76-20.43-14.29-31.7-19.5-.16-1.31-.6-2.6-1.4-3.77-7-10.16-5.31-24.88-3.69-39.11l.51-4.49c.78-7.25.84-13.91.23-19.97l12.76-5.51c4.36-1.88,6.32-6.89,4.38-11.2-1.44-3.2-4.62-5.11-7.95-5.11-1.15,0-2.32.23-3.44.71l-9.86,4.26c-3.2-7.44-8.07-13.24-14.56-17.22-1.43-.88-3.01-1.3-4.57-1.3-2.88,0-5.68,1.42-7.29,4-2.5,3.98-1.23,9.23,2.83,11.72,11.75,7.21,11.51,26.71,10.33,37.68l-.49,4.39c-.04.31-.07.62-.1.92-12.87-1.51-25.51-5.09-38.79-8.87-6.49-1.85-13.19-3.75-19.91-5.39-.4-.1-.79-.19-1.19-.28-12.69-3.01-24.25-4.52-34.78-4.52-13.43,0-25.2,2.45-35.53,7.37-4.28,2.03-6.05,7.12-3.96,11.35,1.18,2.4,3.35,4.01,5.79,4.59.66.16,1.34.24,2.03.24,1.25,0,2.52-.27,3.73-.84,7.98-3.8,17.29-5.69,28.1-5.69,9.13,0,19.32,1.35,30.69,4.05.36.09.73.17,1.1.26,1.54.37,3.09.81,4.64,1.21-9.76,6.1-18.18,14.33-24.22,23.94-2.5,3.98-1.24,9.23,2.82,11.73.81.5,1.68.85,2.56,1.06.67.16,1.35.24,2.02.24,2.87,0,5.67-1.41,7.29-3.99,7.29-11.61,19.03-20.66,32.23-24.84.87-.28,1.64-.71,2.35-1.21,10.28,2.81,20.81,5.32,31.64,6.55-.17,6.33.23,12.69,1.82,18.82-13.12-3.85-26.75-6.04-40.48-6.36-.07,0-.13,0-.2,0-4.52,0-8.22,3.56-8.29,8.04-.08,4.55,3.61,8.32,8.21,8.43,23.89.55,47.39,7.36,67.89,19.41-2.66,1.25-5.11,2.95-7.18,5.07-3.19,3.26-3.07,8.48.26,11.65,1.12,1.06,2.46,1.76,3.86,2.1.65.15,1.31.23,1.97.23,2.18,0,4.35-.84,5.98-2.5,1.7-1.74,4.32-2.67,6.9-2.67,1.65,0,3.28.38,4.64,1.18,1.34.79,2.8,1.15,4.25,1.15.56,0,1.11-.05,1.66-.16,3.11,2.46,6.4,4.86,10.16,6.86,12.65,6.72,26.31,6.83,39.53,6.93,9.3.08,18.08.16,26.01,2.48,4.31,1.27,8.32,3.21,12.1,5.64.3.58.57,1.18.89,1.76,1.18,2.18,3.2,3.62,5.46,4.16.53.13,1.08.19,1.63.21,8.52,7.65,15.94,17.83,23.21,28.64.13,2.66.34,5.31.64,7.96-.41.3-.8.64-1.15,1.02-6.75,7.35-16.83,11.41-26.87,11.41-3.95,0-7.9-.63-11.63-1.94-.93-.33-1.87-.48-2.79-.48-2.76,0-5.35,1.37-6.89,3.65-5.63-3.48-11.4-6.71-17.31-9.69-3.22-1.62-6.49-3.17-9.76-4.73-10.01-4.75-19.48-9.24-27.37-15.69-3.52-2.88-6.77-6.18-10.22-9.68-1.71-1.73-3.44-3.49-5.24-5.23-.04-.04-.07-.09-.11-.13-.04-.04-.09-.06-.13-.1-1.93-1.86-3.94-3.69-6.07-5.43-13.94-11.39-32.02-17.55-50.03-17.55-6.22,0-12.44.74-18.47,2.25-2.71.68-4.89,2.65-5.79,5.26-.91,2.61-.43,5.5,1.28,7.7l3.78,4.88c1.66,2.14,4.16,3.27,6.69,3.27,1.76,0,3.52-.54,5.02-1.67,1.72-1.29,2.79-3.12,3.14-5.07,1.5-.11,3.01-.17,4.52-.17,13.71,0,27.45,4.58,38.25,13.02-4.22,4.77-8.11,9.84-11.65,15.15l-48.17-11.36c-.12-.09-.21-.21-.33-.3-17.29-12.68-32.3-29-43.38-47.21-1.58-2.6-4.37-4.04-7.21-4.04-1.45,0-2.92.37-4.25,1.16-3.95,2.32-5.22,7.37-2.84,11.28,1.79,2.94,3.7,5.82,5.67,8.66-5.24-1.25-10.62-1.89-16-1.89-6.65,0-13.3.97-19.69,2.96-4.53,1.41-7.02,6.19-5.56,10.67.97,2.95,3.4,5.04,6.25,5.72.66.16,1.33.24,2.02.24.86,0,1.73-.13,2.59-.39,4.62-1.44,9.51-2.14,14.42-2.14,9.64,0,19.38,2.72,27.39,7.9,1.46.94,3.1,1.39,4.72,1.39,1.2,0,2.39-.25,3.49-.72.57.58,1.12,1.18,1.69,1.75-11.57.39-19.79,4.63-24.51,12.75-2.29,3.93-.89,8.97,3.11,11.26.72.41,1.47.7,2.24.89.65.15,1.3.23,1.95.23,2.88,0,5.67-1.47,7.2-4.11,2.02-3.47,6.74-4.58,11.94-4.58,4.92,0,10.28.99,14.21,1.92l54.38,12.82c-10.88,21.48-16.48,45.66-15.59,69.57.14,3.79,2.86,6.91,6.44,7.76.63.15,1.29.23,1.96.23.09,0,.17,0,.26,0,4.61-.14,8.21-3.93,8.04-8.48-.85-22.68,4.92-45.63,15.95-65.62,3.35-.42,6.23-2.8,7.04-6.23.38-1.61.24-3.21-.29-4.66,2.69-3.89,5.59-7.63,8.7-11.19,3.31,3.35,6.74,6.78,10.59,9.92,9.48,7.74,20.32,12.89,30.81,17.87,3.15,1.49,6.3,2.99,9.4,4.55,14.39,7.25,27.95,16.15,40.3,26.44,5.22,4.35,9.16,10.25,9.36,14.03.06,1.13-.25,1.68-.77,2.21-1.66,1.68-2.41,3.9-2.31,6.08-3.06,1.76-6.21,3.33-9.51,4.64-4.27,1.7-6.31,6.5-4.56,10.71,1.07,2.57,3.29,4.33,5.83,4.94.64.15,1.29.23,1.96.23,1.04,0,2.09-.19,3.11-.6,34.07-13.56,54.68-45.73,74.61-76.84,1.42-2.21,2.83-4.38,4.25-6.57,0,0,.01.01.02.01,10.53,6.28,21.58,11.72,32.98,16.39.88,2.91,3.23,5.05,6.06,5.73.63.15,1.29.23,1.95.23s1.3-.07,1.96-.23c1.04-.25,2.06-.53,3.09-.8,9.78,3.39,19.77,6.19,29.91,8.39,8.06,3.74,14.23,12.61,20.22,21.23l1.84,2.65c9.79,13.97,20.21,22.3,31.08,24.89,2.43.58,4.89.87,7.36.87.74,0,1.48-.03,2.22-.08,4.6-.32,8.04-4.26,7.68-8.79-.34-4.34-4.03-7.66-8.37-7.66-.2,0-.4,0-.6.02-.33.02-.66.03-.99.03-7.73,0-16.02-6.25-24.66-18.58l-1.8-2.59c-1.68-2.42-3.41-4.9-5.23-7.36,8.54.87,17.12,1.3,25.69,1.3,5.39,0,10.78-.17,16.16-.51-.09,2.28.75,4.6,2.56,6.31,13.49,12.73,29.98,22.54,47.66,28.38,3.92,1.3,7.88,2.39,11.85,3.34,13.58,3.23,27.37,4.66,40.81,6.05l52.41,5.43c1.91,6.43,4.32,12.71,7.24,18.75,1.14,2.35,3.26,3.94,5.64,4.51.64.15,1.3.23,1.96.23,1.19,0,2.39-.25,3.53-.78,4.16-1.93,5.92-6.84,3.94-10.96-1.55-3.21-2.88-6.52-4.1-9.87l9.72,1.01c.3.03.59.05.89.05,4.22,0,7.82-3.14,8.24-7.37.45-4.53-2.95-8.59-7.5-9.05l-16.08-1.67c-2.01-10.39-2.57-21.03-1.55-31.5,25.18,11.5,49.38,28.69,70.61,50.73,1.91,1.99,3.79,4.06,5.67,6.12-2.22.59-4.19,2.05-5.29,4.24-8.59,17.16-9.27,38.02-1.83,55.79,1.07,2.56,3.29,4.31,5.82,4.91.64.15,1.29.23,1.96.23,1.04,0,2.11-.19,3.13-.6,4.26-1.71,6.29-6.51,4.53-10.73-5.63-13.46-5.11-29.24,1.39-42.23.07-.15.11-.3.17-.45,5.55,6.5,10.98,13.13,16.31,19.65.37.45.74.91,1.11,1.36-6.64,14.77-6.03,32.47,1.78,46.82,1.18,2.17,3.2,3.62,5.45,4.15.64.15,1.3.23,1.96.23,1.32,0,2.66-.31,3.9-.96,4.06-2.13,5.58-7.11,3.39-11.13-3.87-7.11-5.08-15.67-3.74-23.71,18.55,21.99,38.66,43.08,64.55,57.28.71.39,1.44.67,2.19.85.67.16,1.34.24,2.01.24,3.03,0,5.95-1.57,7.51-4.36,2.29-4.1.77-9.29-3.41-11.58-9.6-5.27-18.32-11.6-26.52-18.67.73-1.44,1.04-3.1.79-4.82-4.7-32.28-.63-65.13,11.71-95.23,4.57.71,9.27,1.17,14.02,1.17,3.72,0,7.48-.28,11.22-.95-.27,14.95-2.39,29.86-6.48,44.24-1.83,6.44-4.69,9.55-5.83,9.55-.02,0-.04,0-.05,0-.38-.04-.76-.12-1.14-.2-1.11-.22-2.62-.52-4.34-.52-1.59,0-3.38.25-5.21,1.05-5.13,2.23-7.62,8.43-5.55,13.81,1.21,3.17,3.82,5.35,6.86,6.08.72.17,1.47.26,2.23.26.94,0,1.9-.14,2.85-.42,2.03-.61,3.65-1.92,4.67-3.58.45,0,.88-.04,1.32-.07,5.34,16.03,13.95,31.19,25.09,44,1.2,1.38,2.76,2.27,4.42,2.67.65.15,1.31.23,1.97.23,1.91,0,3.83-.64,5.39-1.96,3.49-2.95,3.88-8.15.87-11.61-10.36-11.91-18.25-26.13-22.8-41.14-.12-.38-.29-.73-.45-1.08,2.41-3.34,4.39-7.54,5.81-12.51.48-1.69.93-3.39,1.37-5.1,10.79,6.75,20.5,14.98,28.89,24.58,1.2,1.37,2.75,2.26,4.4,2.65.65.15,1.31.23,1.97.23,1.92,0,3.84-.65,5.41-1.98,3.48-2.95,3.86-8.16.84-11.61-10.85-12.42-23.64-22.8-38-30.97.51-3.26.92-6.53,1.27-9.81l39.78,9.45c.66.16,1.32.23,1.97.23,3.77,0,7.17-2.53,8.07-6.31,1.05-4.42-1.74-8.87-6.23-9.94l-41.91-9.96c-.23-.05-.45-.06-.68-.09.23-13.77-1.02-27.57-3.78-41.1,2.79,2.18,5.56,4.39,8.28,6.68,1.59,1.34,3.53,2,5.46,2,2.35,0,4.67-.97,6.31-2.86,2.99-3.45,2.55-8.65-.96-11.62-15.9-13.42-33.06-25.03-51.26-34.85.46-1.95.23-4.07-.86-5.95-5.61-9.73-10.86-19.31-13.38-29.43-2.31-9.25-2.24-18.95.04-28.12,18.39,6.96,37.23,12.74,56.37,17.29,10.87,2.58,21.84,4.77,32.87,6.55.47.08.94.11,1.41.11,4.15,0,7.79-2.96,8.45-7.13.73-4.63-2.43-8.95-7.19-9.77-29.14-4.71-57.82-12.38-85.43-22.79,0,0,0-.02.02-.03,1.99-3.31,1.32-7.44-1.35-10.05,36.44-20.11,69.56-49.25,98.55-86.85,2.78-3.61,2.06-8.78-1.62-11.55-1.52-1.15-3.32-1.71-5.09-1.71-2.51,0-4.98,1.11-6.61,3.22-24.74,32.08-52.52,57.65-82.82,76.3-2.08-17.78-1.07-36.11,3-53.45,1.07-4.56-1.81-9.14-6.44-10.24,0,0-.01,0-.02,0-.67-.16-1.34-.23-2-.23-3.16,0-6.06,1.74-7.54,4.48-3.94-1.09-7.79-1.56-11.56-1.56-13.1,0-25.27,5.72-37.15,11.32-11.06,5.22-21.51,10.15-31.88,10.15-.07,0-.14,0-.2,0-5.67-.04-11.59-1.6-17.84-3.29l8.04-4.88c1-.6,2-1.22,3-1.82.11,0,.23,0,.35,0,.74,0,1.49-.07,2.24-.28,2.53-.7,4.44-2.47,5.44-4.66,8.6-5.35,17.14-11,25.21-17.38,6.5.53,12.82.8,18.95.8,26.29,0,49.21-4.87,68.4-14.59,17.69-8.95,32.26-21.85,46.35-34.33,3.53-3.13,3.8-8.5.61-12.01-1.72-1.88-4.09-2.84-6.46-2.84-2.04,0-4.09.71-5.73,2.16-13.28,11.76-27.02,23.92-42.74,31.87-16.75,8.48-37.05,12.71-60.55,12.71-.43,0-.85,0-1.28,0,10.48-11.49,18.69-24.38,25.5-38.06,4.44.91,8.96,1.36,13.48,1.36,18,0,35.96-7.08,48.36-20.09,2.97-3.11,3.04-7.85.39-11.11,8.16-1,16.22-2.68,23.98-5.15,4.53-1.44,6.98-6.24,5.48-10.71-1.2-3.6-4.6-5.9-8.25-5.9-.88,0-1.77.13-2.65.42-11.19,3.57-23.05,5.34-34.91,5.34-9.05,0-18.11-1.03-26.89-3.08,2.24-7.06,4.38-14.15,6.5-21.19,11.72-38.93,22.79-75.7,48.49-103.43,3.1-3.35,2.85-8.56-.57-11.64-1.62-1.46-3.65-2.18-5.67-2.18-2.25,0-4.49.89-6.13,2.65-28.27,30.5-40.41,70.82-52.14,109.8-5.84,19.39-11.54,38.25-18.95,55.7-2.59.64-4.83,2.44-5.88,5.07-.93,2.34-.71,4.83.36,6.93-.38.76-.75,1.53-1.14,2.29-.09-.46-.2-.92-.37-1.37l-19.65-51.53c-1.31-3.43-4.62-5.56-8.14-5.56-.99,0-2,.17-2.98.53-4.46,1.63-6.71,6.52-5.03,10.93l19.65,51.53c1.06,2.77,3.41,4.68,6.12,5.33.66.16,1.34.24,2.02.24.99,0,2-.17,2.98-.53.04-.02.08-.04.12-.06-3.81,6.37-8.05,12.44-12.82,18.16-.3-1.65-1.1-3.24-2.39-4.52-9.53-9.41-15.95-21.81-18.07-34.92-.68-4.21-4.38-7.23-8.57-7.23-.43,0-.87.03-1.31.1-4.71.7-7.91,5.05-7.16,9.69,2.69,16.65,10.83,32.4,22.94,44.35,1.18,1.16,2.61,1.92,4.11,2.28.42.1.84.1,1.27.14-1.47,1.41-2.96,2.8-4.49,4.14-2.56-.27-5.14-.58-7.76-.94-.41-.06-.81-.08-1.21-.08-4.24,0-7.91,3.08-8.48,7.33-.29,2.19.28,4.29,1.47,5.98-2.52,1.74-5.08,3.42-7.66,5.09-4.87-13.96-11.04-27.52-18.38-40.45,6.56-17.51,10.55-35.82,11.8-54.49.31-4.69-3.32-8.77-8.04-9.11-.21-.02-.43-.02-.64-.02-4.48,0-8.24,3.41-8.54,7.89-.83,12.5-3.03,24.81-6.48,36.8-5.41-7.8-11.26-15.3-17.54-22.41-1.72-1.95-4.14-2.95-6.56-2.95-2,0-4,.68-5.62,2.07-3.58,3.07-3.95,8.44-.81,12,20.49,23.21,36.16,50.77,45.75,80.03-.5.3-.99.61-1.49.91l-24.46,14.85c-.87.04-1.74.07-2.63.15-1.09.11-2.09.43-3.01.89l-8.33-44.42c-.75-3.99-4.28-6.8-8.26-6.8-.49,0-.98.04-1.47.13-4.54.79-7.53,5.07-6.69,9.55l9.92,52.92-16.58,10.07c-.67-7.3-2.03-14.55-4.09-21.54-1.07-3.63-4.44-5.99-8.08-5.99-.75,0-1.52.1-2.28.31-4.43,1.24-6.97,5.8-5.68,10.17,2.56,8.69,3.85,17.81,3.89,26.9l-16.85,10.23c-1.18-9.58-4.61-18.84-9.91-26.96.76-.74,1.4-1.62,1.83-2.66,7.92-18.79,19.04-35.88,33.05-50.8,3.12-3.32,2.9-8.54-.49-11.64-1.62-1.48-3.67-2.21-5.71-2.21-2.24,0-4.46.88-6.09,2.62-4.14,4.41-8.04,9.02-11.71,13.77l-16.89-15.32c-1.62-1.47-3.66-2.19-5.69-2.19-2.25,0-4.48.89-6.11,2.64-3.11,3.34-2.87,8.55.54,11.64l18.56,16.83c-4.89,7.64-9.21,15.64-12.96,23.95-1.17-1.01-2.37-2-3.63-2.92-1.89-1.4-3.81-2.65-5.66-3.87-3.49-2.29-6.78-4.45-9.07-7.04-6.37-7.22-6.34-18.81-5.72-31.05.23-4.54-3.3-8.45-7.93-8.69-.16,0-.32-.01-.48-.01-4.4,0-8.05,3.39-8.27,7.77-.76,15.12-.63,30.88,9.84,42.75,3.78,4.29,8.39,7.31,12.46,9.97,1.65,1.08,3.31,2.16,4.88,3.33,12.17,9,19.59,24.45,18.9,39.38,0,.2.02.38.03.58l-24.42,14.82c-1.94.56-3.88,1.21-5.8,1.96,2.06-11.24,1.37-23.01-2.25-33.84-1.17-3.49-4.46-5.71-7.99-5.71-.85,0-1.71.13-2.56.4-4.38,1.4-6.75,6.04-5.31,10.37,4.55,13.59,3.06,29.12-3.99,41.54-.5.89-.8,1.84-.94,2.79l-85.99,52.2c-2.33,1.42-4.68,2.84-7.03,4.26-2.64-1.21-5.26-2.5-7.83-3.97-1.33-.76-2.78-1.12-4.2-1.12-2.88,0-5.66,1.47-7.2,4.1-2.17,3.73-1.01,8.43,2.54,10.86-7.43,4.26-14.97,8.36-22.66,12.09,1.54-6,2.46-12.16,2.65-18.33.14-4.54-3.47-8.38-8.09-8.55-.11,0-.22,0-.33,0-4.47,0-8.14,3.48-8.28,7.92-.31,9.66-2.76,19.26-6.99,27.99-3.61,1.33-7.26,2.55-10.95,3.64-13.23-4.87-26-10.88-38.05-18.04,9.83-14.35,20.38-28.07,31.59-41.15,8.49,1.46,17.95,2.78,27.6,2.78,10.13,0,20.46-1.45,30.09-5.72,13.66-6.05,23.61-16.51,33.24-26.62,2.41-2.53,4.81-5.05,7.26-7.49,12.27-12.2,23.75-18.36,34.16-18.36,1.05,0,2.09.06,3.12.19.35.04.7.06,1.04.06,4.15,0,7.73-3.05,8.23-7.22.54-4.51-2.75-8.6-7.33-9.19-1.73-.21-3.47-.32-5.22-.32-14.98,0-30.39,7.78-45.89,23.19-2.56,2.54-5.07,5.17-7.58,7.81-8.91,9.35-17.32,18.19-27.96,22.91-7.03,3.12-14.69,4.29-22.91,4.29-4.73,0-9.63-.39-14.71-1.02,17.72-19.02,36.95-36.52,57.56-52.36,6.37-4.89,13.03-9.75,19.47-14.45,20.16-14.69,41.01-29.89,57.87-49.7,9.92-11.66,18.09-24.49,25.41-37.72,3.53.48,7.08.72,10.62.72,20.34,0,40.4-7.74,55.56-20.95,2.9-.31,5.81-.46,8.72-.46,2.25,0,4.5.09,6.75.28.02,0,.04.02.07.02.63.15,1.26.2,1.9.2.16,0,.31,0,.47,0,6.38.71,12.67,2.14,18.72,4.31.98.35,1.98.51,2.95.51,3.53,0,6.82-2.14,8.07-5.6,1.6-4.42-.75-9.3-5.24-10.91-2.68-.96-5.4-1.76-8.15-2.48,5.55-7.91,9.33-17.03,11.09-26.53,7.87-5.62,17.03-9.3,26.7-10.68,3.41-.48,6.18-2.93,7.06-6.2,1.69-6.34,3-12.36,4.04-18.17,12.35-3.08,24.76-6.8,36.34-13.17l31.38,10.49c.25.09.51.16.76.22.67.16,1.35.24,2.02.24,3.59,0,6.93-2.23,8.13-5.77,1.5-4.45-.95-9.28-5.47-10.79l-19.98-6.68c8.99-8.75,14.93-19.23,16.88-30.28.82-4.63-2.38-9-7.02-9.89-.52-.09-1.04-.14-1.55-.14-4.09,0-7.7,2.88-8.43,6.99-1.78,10.06-8.64,19.67-19.09,26.99-.61-.13-1.23-.19-1.83-.19-3.58,0-6.9,2.21-8.09,5.74-.03.08-.03.15-.05.23-6.85,3.29-14.23,5.73-21.76,7.8.76-12.31-.17-23.55-2.86-34.15-.99-3.89-4.54-6.5-8.43-6.5-.67,0-1.36.08-2.04.24-4.62,1.11-7.43,5.71-6.28,10.28,2.66,10.51,3.28,21.94,1.88,34.9-3.32,1.8-5.14,5.61-4.18,9.42.38,1.5,1.16,2.78,2.17,3.83-.56,2.85-1.19,5.77-1.91,8.77-6.17,1.35-12.13,3.46-17.75,6.23-.46-3.65-1.21-7.28-2.32-10.81-1.26-4-2.89-8.03-4.46-11.93-5.2-12.91-8.28-21.83-3.81-28.03,2.75-3.82,1.82-9.13-2.07-11.87-1.53-1.08-3.29-1.59-5.03-1.59-2.69,0-5.32,1.23-6.99,3.55-10.19,14.16-3.5,30.77,1.88,44.13,1.52,3.77,2.95,7.32,4.02,10.7,1.91,6.05,2.48,12.43,1.87,18.7-.38,1.1-.54,2.26-.45,3.42-1.62,9.75-6.11,19.03-12.97,26.17,1.08-1.79,2.1-3.62,3.03-5.51,2.07-4.21.27-9.31-4.02-11.39-1.22-.59-2.52-.87-3.8-.87-3.18,0-6.24,1.74-7.72,4.75-10.52,21.4-34.89,35.44-59.05,35.44-.56,0-1.12,0-1.67-.02,3.23-6.43,6.34-12.89,9.43-19.29,4.31-8.94,8.64-17.95,12.93-27.01,1.27-.3,2.49-.88,3.55-1.76,6.69-5.6,15.47-8.75,24.28-8.75.43,0,.86,0,1.29.02.1,0,.21,0,.31,0,4.62,0,8.43-3.61,8.56-8.2.14-4.7-3.63-8.64-8.37-8.81-.6-.02-1.21-.03-1.81-.03-5.49,0-10.96.87-16.2,2.46,9.33-20.66,18.1-41.7,25.55-63.26,1.27-.4,2.46-1.06,3.46-2.06,2.41-2.4,6.89-2.61,13.99-2.65,4.56-.03,9.28-.06,14.07-1.12,12.52-2.78,22.81-12.95,25.6-25.3,1.03-4.55-1.86-9.08-6.45-10.18-.03,0-.06-.01-.09-.02-.65-.15-1.3-.22-1.94-.22-3.93,0-7.46,2.67-8.36,6.6-1.36,6.01-6.56,11.16-12.66,12.52-2.97.66-6.58.68-10.4.71-3.25.02-6.82.06-10.41.55,2.59-8.72,4.96-17.52,7-26.43,2.21-9.64,4.15-19.64,6.03-29.31.17-.86.34-1.73.5-2.59.35-.35.67-.75.96-1.17,1.76-1.08,3.54-2.12,5.35-3.12.79.37,1.62.67,2.53.79,12.51,1.72,24.64,5.32,36.05,10.72.57.27,1.14.47,1.73.61.67.16,1.34.24,2.01.24,3.21,0,6.28-1.78,7.74-4.82,2.04-4.23.2-9.32-4.11-11.35-6.35-3.01-12.9-5.52-19.6-7.54,4.29-1.36,8.63-2.55,13.02-3.49,4.65-1,7.57-5.54,6.52-10.13-.91-3.98-4.5-6.69-8.48-6.69-.61,0-1.22.06-1.84.19-12.85,2.77-25.41,7.22-37.24,13.04,6.56-29.73,15.64-58.27,35.67-78.63,3.2-3.25,3.1-8.47-.22-11.65-1.64-1.57-3.75-2.35-5.85-2.35h0ZM347.96,429.56c.07-1.34.16-2.69.28-4.03,1.29-.64,2.43-1.59,3.28-2.85,2.39-3.56,1.65-8.25-1.51-11.03.47-2.91.97-5.78,1.46-8.59l3.64-20.85c3.53-1.45,5.77-5.09,5.18-9.01l-1.66-11.12,4.95-28.33c21.21-23.44,31.29-53.51,37.39-82.63-2.3,19.1,1.52,39.54,6.24,60.45.51,2.26,2,4.06,3.93,5.08-2.51,2.79-5.07,5.21-7.69,6.85.24-5.18.23-10.41-.15-15.7-.31-4.36-4-7.72-8.37-7.72-.18,0-.36,0-.55.02-4.6.29-8.07,4.2-7.75,8.74,3,42.05-17.82,82.04-38.66,120.74h0ZM410.12,432.28c2.19-20.31,10.9-40.03,20.05-60.65,10.69-24.13,21.75-49.09,22.19-76.21.03-1.7-.47-3.29-1.34-4.63l28.28-36.48c3.24,8.47,8.45,15.97,13.55,23.27,5.96,8.54,11.26,16.16,12.65,24-.62-.18-1.26-.3-1.93-.33-.13,0-.25,0-.38,0-4.44,0-8.12,3.45-8.29,7.87-.23,6.1-1.13,12.18-2.6,18.13-2.59,2.14-3.55,5.55-2.59,8.65-4.12,11.73-10.55,22.68-18.84,31.96-2.2-10.03-5.9-19.76-11.22-28.74-1.57-2.65-4.39-4.12-7.27-4.12-1.42,0-2.85.36-4.16,1.11-3.98,2.28-5.31,7.31-2.98,11.25,21.14,35.66,11.38,87.23-21.31,112.62-2.17,1.68-3.22,4.21-3.13,6.74-7.62,7.11-15.02,14.46-22.18,22.05-.81-11.48-2.12-22.95-3.88-34.35.04,0,.08,0,.12,0,.4,0,.8-.05,1.19-.1,1,.84,2.19,1.45,3.49,1.76.63.15,1.28.23,1.95.23.18,0,.35,0,.53-.02,4.14-.25,7.35-3.45,7.71-7.4,1.15-.17,2.31-.26,3.48-.26.94,0,1.89.06,2.83.18.36.05.72.07,1.08.07,4.14,0,7.71-3.03,8.22-7.18.56-4.51-2.73-8.66-7.28-9.22-1.59-.2-3.19-.3-4.79-.3-1.05,0-2.11.04-3.16.12h0ZM831.99,305.25c-1.98,0-3.97-.11-5.93-.35,2.25-5.48,4.35-11.03,6.32-16.64.41.1.82.21,1.23.31,10.05,2.39,20.44,3.52,30.83,3.52.65,0,1.31,0,1.96-.01-9.02,8.5-21.77,13.18-34.41,13.18h0ZM433.59,313.26c-3.5,17.26-10.95,34.11-18.74,51.68-10.26,23.15-20.82,46.99-21.88,72.62-.36.21-.71.46-1.06.68-1.08-5.51-2.25-11.01-3.55-16.47-.91-3.82-4.37-6.4-8.18-6.4-.62,0-1.24.07-1.87.21-4.49,1.01-7.27,5.43-6.21,9.86,5.83,24.44,9.35,49.54,10.45,74.6.04.81.21,1.57.46,2.3-.79,1.01-1.38,2.18-1.62,3.52-.14.74-.13,1.47-.06,2.18-1.62,1.9-3.21,3.82-4.8,5.75-1.26-5.3-4.22-10.34-7.64-13.73-6-5.97-6.94-8.9-7.08-9.67,2.81-3.45,2.33-8.52-1.13-11.44-1.58-1.33-3.52-1.98-5.45-1.98-2.35,0-4.69.97-6.32,2.87-5.02,5.81-7.67,16.05,8.17,31.79,1.92,1.91,3.11,4.91,3.36,6.64-3.49,1.63-5.43,5.52-4.46,9.37.7,2.76,2.76,4.8,5.28,5.72-5.62,7.57-11.06,15.31-16.28,23.24-2.88,4.37-5.73,8.83-8.6,13.31-3.09,4.82-6.2,9.66-9.36,14.45-2.16-6.6-3.9-14.43-4.42-23.86.46-1.62.43-3.36-.16-5-.17-21.12,5.73-49.71,25.19-89.36,2.97-1.69,4.6-4.97,4.2-8.3.71-1.36,1.4-2.71,2.13-4.1,2.27-4.28,4.59-8.57,6.91-12.88,17.33-32.13,35.06-65.11,40.82-100.44,12.78-2.47,21.84-14.13,27.86-21.9l4.08-5.27h0ZM762.15,451.86c4.49,0,8.25-3.42,8.54-7.9.5-7.55-1.32-15.16-4.96-21.81,8.06-2.28,15.71-5.87,23.21-9.4,10.84-5.11,20.51-9.68,29.78-9.68,2.54,0,5.05.34,7.55,1.11.11.03.21.04.32.06-2.47,17.2-2.37,34.91.39,51.98-1.97,1.03-3.95,2.04-5.94,3.01-30.94,15.07-63.96,22.82-95.89,22.82-1.56,0-3.11-.02-4.66-.06,8.97-11.98,16.7-24.86,23.01-38.41,1.98-4.26.08-9.32-4.26-11.3-1.18-.55-2.43-.81-3.65-.81-3.25,0-6.35,1.83-7.78,4.92-6.91,14.84-15.65,28.83-25.99,41.58-.61.76-1.03,1.59-1.35,2.46-4.5-.59-8.98-1.3-13.39-2.22-6.81-1.42-13.63-3.2-20.86-5.08-11.76-3.07-23.69-6.17-35.6-7.67l23.84-14.47c1.1,1.18,2.53,2.08,4.2,2.47.3.07.6.13.91.17.36.05.72.07,1.07.07,4.14,0,7.71-3.03,8.22-7.19.18-1.5.31-3.01.43-4.52l25.66-15.57c.15,0,.3.01.45.01.47,0,.94-.04,1.42-.12,2.82-.5,5.04-2.34,6.12-4.74l7.22-4.38c5.2.31,10.65,1.78,16.35,3.32,6.31,1.7,12.81,3.46,19.74,3.92.05.06.09.12.15.18,4.8,4.61,7.52,11.56,7.09,18.13-.28,4.21,2.6,7.92,6.63,8.88.46.11.93.18,1.42.22.21.01.42.02.63.02h0ZM818.61,492.67c-2.2-3.76-4.14-7.66-5.91-11.63,3.25-1.32,6.48-2.71,9.7-4.17-.42.56-.8,1.16-1.07,1.84-.7,1.71-.78,3.51-.36,5.19-.96,2.88-1.75,5.81-2.35,8.79h0ZM652.96,553.15c3.28,0,6.38-1.91,7.69-5.09,1.74-4.2-.32-9.02-4.6-10.76-7.1-2.89-14.3-5.42-21.57-7.66-1.11-.62-2.35-1-3.64-1.07-26.02-7.64-52.84-11.69-79.29-15.1l50.72-30.78c4.78-1.16,9.7-1.65,14.74-1.65,14.2,0,29.34,3.94,45.04,8.04,2.58.67,5.22,1.34,7.85,2.01-10.05,18.69-8.85,42.81,3.78,60.33,1.23,1.7,2.98,2.81,4.89,3.26.06.01.12.01.17.02l-51.22,20.79c-1.7.69-3.02,1.88-3.9,3.32-9.28-1.49-18.55-2.26-27.72-2.26-5.17,0-10.31.24-15.4.74-12.27,1.19-24.27,3.76-35.88,6.24-7.18,1.54-14.61,3.12-21.87,4.33-12.28,2.03-24.77,3.03-37.29,3.03-19.06,0-38.19-2.31-56.77-6.81,16.19-6.82,31.49-15.37,46.38-24.23,4.86,1.79,9.76,3.25,14.63,4.41,12.47,2.96,24.78,4.03,36.03,4.03,7.82,0,15.13-.51,21.62-1.26,28.86-3.33,56.32-12.42,82.91-21.43,6.61,2.05,13.13,4.34,19.53,6.94,1.04.43,2.12.63,3.19.63h0ZM827.24,546.04c-5.93-2.59-11.92-5.06-18.04-7.28-3.99-1.45-8.54-2.99-13.46-4.42.2-2.72-.96-5.5-3.35-7.25-12.92-9.49-25.41-19.77-37.3-30.59,14.05-1.91,28.1-5.19,41.96-9.73,4.58,10.48,10.44,20.38,17.56,29.39.91,1.16,2.07,2.01,3.35,2.54.34,2.26.78,4.51,1.34,6.74,1.82,7.29,4.65,14.05,7.95,20.61h0ZM687.51,551.15c1.78-2.74,1.8-6.38-.24-9.21-9.77-13.55-9.73-33.45-.14-46.96,12.43,2.36,25.19,3.53,38.1,3.53,2.68,0,5.36-.05,8.05-.15.36.57.77,1.12,1.28,1.62,10.62,10.2,21.82,19.95,33.4,29.16-2.36-.17-4.74-.26-7.14-.26-3.83,0-7.7.23-11.57.77-13.16,1.81-25.11,6.66-36.68,11.35l-25.05,10.17h0ZM525.69,551.8c-9.92,0-20.73-.92-31.61-3.44l36.89-22.39c1.01.9,2.23,1.58,3.62,1.91.3.07.61.13.92.17,21.53,2.7,43.47,5.46,64.95,9.94-18.08,5.66-36.51,10.53-55.19,12.68-5.89.68-12.51,1.14-19.59,1.14h0ZM692.64,603.45c-14.23-7.98-28.92-14.28-43.76-18.77l70.12-28.46c10.61-4.3,21.58-8.75,32.65-10.28,3.15-.43,6.38-.65,9.7-.65,12.04,0,25.48,2.88,42.17,8.92,24.59,8.91,47.59,21.06,68.68,36.16-.1.02-.2,0-.3.03-4.52.89-7.43,5.22-6.5,9.68,1.49,7.17,2.5,14.42,3.07,21.71-3.53.88-7.2,1.25-10.93,1.25-9.88,0-20.19-2.57-29.59-4.94l-57.5-14.47c-1.43-1.12-3.21-1.82-5.17-1.82-.04,0-.08,0-.11,0-.46,0-.91.07-1.35.15l-17.4-4.38c4.04-3.98,7.65-8.39,10.64-13.21,2.4-3.87,1.16-8.94-2.78-11.34-1.37-.84-2.9-1.24-4.4-1.24-2.79,0-5.52,1.38-7.08,3.9-10.46,16.83-30.08,27.65-50.16,27.75h0ZM297.83,621.33c-2.34-8.12-8.52-15.66-14.32-20.48-1.5-1.25-3.02-2.48-4.56-3.69,11.23-.08,22.45-3.62,31.49-10.12,1.05,3.57,2.29,7.11,3.75,10.63.42,1,1.04,1.83,1.76,2.57-5.66,7.64-11.63,14.81-18.12,21.09h0ZM545.17,621.87c-9.25-4.26-17.92-9.79-25.64-16.36,2.06-.29,4.13-.54,6.18-.88,7.67-1.27,15.29-2.9,22.67-4.48,11.64-2.49,22.64-4.84,33.92-5.94,4.58-.44,9.19-.66,13.84-.66,18.55,0,37.58,3.5,56.3,10.14-1.64,11.97-1.5,24.22.36,36.23l-46.97-4.87c-15.04-1.56-30.53-3.2-44.97-7.38,8.53-7.93,20.39-12.16,32.19-12.16,7.26,0,14.5,1.6,20.94,4.93,1.24.64,2.58.95,3.89.95,3,0,5.89-1.6,7.37-4.4,2.12-4.02.52-9.01-3.58-11.13-8.99-4.65-18.95-6.9-28.89-6.9-16.81,0-33.56,6.43-45.41,18.55-1.21,1.24-1.94,2.76-2.2,4.35h0ZM813.93,721.73c-10.12-10.74-19.7-22.46-29.51-34.47-10.41-12.74-21.19-25.92-32.8-37.98-11.83-12.28-24.54-23.14-37.84-32.5,5.48-1.62,10.78-3.83,15.77-6.59.39.16.77.32,1.19.43l26.73,6.72c2.14,17.8,10.98,34.98,24.45,47.05,1.08.97,2.35,1.61,3.68,1.93.65.15,1.31.23,1.97.23,2.26,0,4.51-.9,6.15-2.68,3.09-3.36,2.81-8.57-.62-11.64-8.91-7.98-15.23-18.85-17.95-30.44l48.78,12.27c1.02.26,2.11.52,3.15.78-5.78,14.72-9.75,30.03-11.87,45.59-4.2-.52-8.31-1.99-11.81-4.36-1.46-.98-3.11-1.45-4.75-1.45-2.66,0-5.25,1.24-6.86,3.56-2.59,3.75-1.59,8.88,2.22,11.46,4.37,2.95,9.31,5.1,14.47,6.32,1.71.41,3.44.7,5.19.9-.43,8.27-.36,16.58.25,24.87h0Z"/>
</svg>